<?xml version="1.0" encoding="UTF-8" standalone="no"?>
<svg
   width="456"
   height="456"
   viewBox="0 0 456 456"
   version="1.1"
   xml:space="preserve"
   style="fill-rule:evenodd;clip-rule:evenodd;stroke-linejoin:round;stroke-miterlimit:2;"
   id="svg467"
   sodipodi:docname="appiconfg.svg"
   inkscape:version="1.2.2 (732a01da63, 2022-12-09)"
   xmlns:inkscape="http://www.inkscape.org/namespaces/inkscape"
   xmlns:sodipodi="http://sodipodi.sourceforge.net/DTD/sodipodi-0.dtd"
   xmlns="http://www.w3.org/2000/svg"
   xmlns:svg="http://www.w3.org/2000/svg"><defs
   id="defs471"><rect
     x="78.451614"
     y="92.616486"
     width="338.86737"
     height="246.7957"
     id="rect189" /><filter
     style="color-interpolation-filters:sRGB"
     inkscape:label="Drop Shadow"
     id="filter265"
     x="-0.058419701"
     y="-0.29631059"
     width="1.1259675"
     height="1.6389197"><feFlood
       flood-opacity="0.596078"
       flood-color="rgb(0,0,0)"
       result="flood"
       id="feFlood255" /><feComposite
       in="flood"
       in2="SourceGraphic"
       operator="in"
       result="composite1"
       id="feComposite257" /><feGaussianBlur
       in="composite1"
       stdDeviation="3"
       result="blur"
       id="feGaussianBlur259" /><feOffset
       dx="1"
       dy="1"
       result="offset"
       id="feOffset261" /><feComposite
       in="SourceGraphic"
       in2="offset"
       operator="over"
       result="fbSourceGraphic"
       id="feComposite263" /><feColorMatrix
       result="fbSourceGraphicAlpha"
       in="fbSourceGraphic"
       values="0 0 0 -1 0 0 0 0 -1 0 0 0 0 -1 0 0 0 0 1 0"
       id="feColorMatrix267" /><feFlood
       id="feFlood269"
       flood-opacity="0.596078"
       flood-color="rgb(84,84,84)"
       result="flood"
       in="fbSourceGraphic" /><feComposite
       in2="fbSourceGraphic"
       id="feComposite271"
       in="flood"
       operator="in"
       result="composite1" /><feGaussianBlur
       id="feGaussianBlur273"
       in="composite1"
       stdDeviation="3"
       result="blur" /><feOffset
       id="feOffset275"
       dx="1"
       dy="1"
       result="offset" /><feComposite
       in2="offset"
       id="feComposite277"
       in="fbSourceGraphic"
       operator="over"
       result="fbSourceGraphic" /><feColorMatrix
       result="fbSourceGraphicAlpha"
       in="fbSourceGraphic"
       values="0 0 0 -1 0 0 0 0 -1 0 0 0 0 -1 0 0 0 0 1 0"
       id="feColorMatrix279" /><feFlood
       id="feFlood281"
       flood-opacity="0.596078"
       flood-color="rgb(84,84,84)"
       result="flood"
       in="fbSourceGraphic" /><feComposite
       in2="fbSourceGraphic"
       id="feComposite283"
       in="flood"
       operator="in"
       result="composite1" /><feGaussianBlur
       id="feGaussianBlur285"
       in="composite1"
       stdDeviation="2"
       result="blur" /><feOffset
       id="feOffset287"
       dx="1"
       dy="1"
       result="offset" /><feComposite
       in2="offset"
       id="feComposite289"
       in="fbSourceGraphic"
       operator="over"
       result="composite2" /></filter><rect
     x="67.555557"
     y="270.76703"
     width="342.681"
     height="90.437279"
     id="rect457" /><filter
     style="color-interpolation-filters:sRGB"
     inkscape:label="Drop Shadow"
     id="filter521"
     x="-0.035529707"
     y="-0.27178969"
     width="1.0795189"
     height="1.6082912"><feFlood
       flood-opacity="0.596078"
       flood-color="rgb(84,84,84)"
       result="flood"
       id="feFlood511" /><feComposite
       in="flood"
       in2="SourceGraphic"
       operator="in"
       result="composite1"
       id="feComposite513" /><feGaussianBlur
       in="composite1"
       stdDeviation="2"
       result="blur"
       id="feGaussianBlur515" /><feOffset
       dx="1"
       dy="1"
       result="offset"
       id="feOffset517" /><feComposite
       in="SourceGraphic"
       in2="offset"
       operator="over"
       result="fbSourceGraphic"
       id="feComposite519" /><feColorMatrix
       result="fbSourceGraphicAlpha"
       in="fbSourceGraphic"
       values="0 0 0 -1 0 0 0 0 -1 0 0 0 0 -1 0 0 0 0 1 0"
       id="feColorMatrix523" /><feFlood
       id="feFlood525"
       flood-opacity="0.596078"
       flood-color="rgb(84,84,84)"
       result="flood"
       in="fbSourceGraphic" /><feComposite
       in2="fbSourceGraphic"
       id="feComposite527"
       in="flood"
       operator="in"
       result="composite1" /><feGaussianBlur
       id="feGaussianBlur529"
       in="composite1"
       stdDeviation="1.5"
       result="blur" /><feOffset
       id="feOffset531"
       dx="1"
       dy="1"
       result="offset" /><feComposite
       in2="offset"
       id="feComposite533"
       in="fbSourceGraphic"
       operator="over"
       result="composite2" /></filter><rect
     x="67.555557"
     y="270.76703"
     width="342.681"
     height="90.437279"
     id="rect457-3" /><filter
     style="color-interpolation-filters:sRGB"
     inkscape:label="Drop Shadow"
     id="filter521-2"
     x="-0.035529707"
     y="-0.27178969"
     width="1.0795189"
     height="1.6082912"><feFlood
       flood-opacity="0.596078"
       flood-color="rgb(84,84,84)"
       result="flood"
       id="feFlood511-7" /><feComposite
       in="flood"
       in2="SourceGraphic"
       operator="in"
       result="composite1"
       id="feComposite513-1" /><feGaussianBlur
       in="composite1"
       stdDeviation="2"
       result="blur"
       id="feGaussianBlur515-4" /><feOffset
       dx="1"
       dy="1"
       result="offset"
       id="feOffset517-9" /><feComposite
       in="SourceGraphic"
       in2="offset"
       operator="over"
       result="fbSourceGraphic"
       id="feComposite519-4" /><feColorMatrix
       result="fbSourceGraphicAlpha"
       in="fbSourceGraphic"
       values="0 0 0 -1 0 0 0 0 -1 0 0 0 0 -1 0 0 0 0 1 0"
       id="feColorMatrix523-1" /><feFlood
       id="feFlood525-8"
       flood-opacity="0.596078"
       flood-color="rgb(84,84,84)"
       result="flood"
       in="fbSourceGraphic" /><feComposite
       in2="fbSourceGraphic"
       id="feComposite527-6"
       in="flood"
       operator="in"
       result="composite1" /><feGaussianBlur
       id="feGaussianBlur529-9"
       in="composite1"
       stdDeviation="1.5"
       result="blur" /><feOffset
       id="feOffset531-1"
       dx="1"
       dy="1"
       result="offset" /><feComposite
       in2="offset"
       id="feComposite533-3"
       in="fbSourceGraphic"
       operator="over"
       result="composite2" /></filter><rect
     x="78.451614"
     y="92.616486"
     width="338.86737"
     height="246.7957"
     id="rect189-4" /><filter
     style="color-interpolation-filters:sRGB"
     inkscape:label="Drop Shadow"
     id="filter265-3"
     x="-0.058419701"
     y="-0.29631059"
     width="1.1259675"
     height="1.6389197"><feFlood
       flood-opacity="0.596078"
       flood-color="rgb(0,0,0)"
       result="flood"
       id="feFlood255-1" /><feComposite
       in="flood"
       in2="SourceGraphic"
       operator="in"
       result="composite1"
       id="feComposite257-1" /><feGaussianBlur
       in="composite1"
       stdDeviation="3"
       result="blur"
       id="feGaussianBlur259-7" /><feOffset
       dx="1"
       dy="1"
       result="offset"
       id="feOffset261-7" /><feComposite
       in="SourceGraphic"
       in2="offset"
       operator="over"
       result="fbSourceGraphic"
       id="feComposite263-0" /><feColorMatrix
       result="fbSourceGraphicAlpha"
       in="fbSourceGraphic"
       values="0 0 0 -1 0 0 0 0 -1 0 0 0 0 -1 0 0 0 0 1 0"
       id="feColorMatrix267-1" /><feFlood
       id="feFlood269-0"
       flood-opacity="0.596078"
       flood-color="rgb(84,84,84)"
       result="flood"
       in="fbSourceGraphic" /><feComposite
       in2="fbSourceGraphic"
       id="feComposite271-4"
       in="flood"
       operator="in"
       result="composite1" /><feGaussianBlur
       id="feGaussianBlur273-7"
       in="composite1"
       stdDeviation="3"
       result="blur" /><feOffset
       id="feOffset275-0"
       dx="1"
       dy="1"
       result="offset" /><feComposite
       in2="offset"
       id="feComposite277-1"
       in="fbSourceGraphic"
       operator="over"
       result="fbSourceGraphic" /><feColorMatrix
       result="fbSourceGraphicAlpha"
       in="fbSourceGraphic"
       values="0 0 0 -1 0 0 0 0 -1 0 0 0 0 -1 0 0 0 0 1 0"
       id="feColorMatrix279-8" /><feFlood
       id="feFlood281-0"
       flood-opacity="0.596078"
       flood-color="rgb(84,84,84)"
       result="flood"
       in="fbSourceGraphic" /><feComposite
       in2="fbSourceGraphic"
       id="feComposite283-4"
       in="flood"
       operator="in"
       result="composite1" /><feGaussianBlur
       id="feGaussianBlur285-1"
       in="composite1"
       stdDeviation="2"
       result="blur" /><feOffset
       id="feOffset287-5"
       dx="1"
       dy="1"
       result="offset" /><feComposite
       in2="offset"
       id="feComposite289-1"
       in="fbSourceGraphic"
       operator="over"
       result="composite2" /></filter><rect
     x="78.451614"
     y="92.616486"
     width="338.86737"
     height="246.7957"
     id="rect189-4-6" /><filter
     style="color-interpolation-filters:sRGB"
     inkscape:label="Drop Shadow"
     id="filter265-3-4"
     x="-0.067957084"
     y="-0.62091966"
     width="1.1465325"
     height="2.338858"><feFlood
       flood-opacity="0.596078"
       flood-color="rgb(0,0,0)"
       result="flood"
       id="feFlood255-1-4" /><feComposite
       in="flood"
       in2="SourceGraphic"
       operator="in"
       result="composite1"
       id="feComposite257-1-5" /><feGaussianBlur
       in="composite1"
       stdDeviation="3"
       result="blur"
       id="feGaussianBlur259-7-4" /><feOffset
       dx="1"
       dy="1"
       result="offset"
       id="feOffset261-7-3" /><feComposite
       in="SourceGraphic"
       in2="offset"
       operator="over"
       result="fbSourceGraphic"
       id="feComposite263-0-6" /><feColorMatrix
       result="fbSourceGraphicAlpha"
       in="fbSourceGraphic"
       values="0 0 0 -1 0 0 0 0 -1 0 0 0 0 -1 0 0 0 0 1 0"
       id="feColorMatrix267-1-9" /><feFlood
       id="feFlood269-0-7"
       flood-opacity="0.596078"
       flood-color="rgb(84,84,84)"
       result="flood"
       in="fbSourceGraphic" /><feComposite
       in2="fbSourceGraphic"
       id="feComposite271-4-5"
       in="flood"
       operator="in"
       result="composite1" /><feGaussianBlur
       id="feGaussianBlur273-7-6"
       in="composite1"
       stdDeviation="3"
       result="blur" /><feOffset
       id="feOffset275-0-9"
       dx="1"
       dy="1"
       result="offset" /><feComposite
       in2="offset"
       id="feComposite277-1-8"
       in="fbSourceGraphic"
       operator="over"
       result="fbSourceGraphic" /><feColorMatrix
       result="fbSourceGraphicAlpha"
       in="fbSourceGraphic"
       values="0 0 0 -1 0 0 0 0 -1 0 0 0 0 -1 0 0 0 0 1 0"
       id="feColorMatrix279-8-2" /><feFlood
       id="feFlood281-0-2"
       flood-opacity="0.596078"
       flood-color="rgb(84,84,84)"
       result="flood"
       in="fbSourceGraphic" /><feComposite
       in2="fbSourceGraphic"
       id="feComposite283-4-9"
       in="flood"
       operator="in"
       result="composite1" /><feGaussianBlur
       id="feGaussianBlur285-1-9"
       in="composite1"
       stdDeviation="2"
       result="blur" /><feOffset
       id="feOffset287-5-6"
       dx="1"
       dy="1"
       result="offset" /><feComposite
       in2="offset"
       id="feComposite289-1-3"
       in="fbSourceGraphic"
       operator="over"
       result="composite2" /></filter><rect
     x="67.555557"
     y="270.76703"
     width="342.681"
     height="90.437279"
     id="rect457-3-2" /><filter
     style="color-interpolation-filters:sRGB"
     inkscape:label="Drop Shadow"
     id="filter521-2-6"
     x="-0.036976408"
     y="-0.27178969"
     width="1.0827567"
     height="1.6082912"><feFlood
       flood-opacity="0.596078"
       flood-color="rgb(84,84,84)"
       result="flood"
       id="feFlood511-7-0" /><feComposite
       in="flood"
       in2="SourceGraphic"
       operator="in"
       result="composite1"
       id="feComposite513-1-2" /><feGaussianBlur
       in="composite1"
       stdDeviation="2"
       result="blur"
       id="feGaussianBlur515-4-2" /><feOffset
       dx="1"
       dy="1"
       result="offset"
       id="feOffset517-9-8" /><feComposite
       in="SourceGraphic"
       in2="offset"
       operator="over"
       result="fbSourceGraphic"
       id="feComposite519-4-1" /><feColorMatrix
       result="fbSourceGraphicAlpha"
       in="fbSourceGraphic"
       values="0 0 0 -1 0 0 0 0 -1 0 0 0 0 -1 0 0 0 0 1 0"
       id="feColorMatrix523-1-1" /><feFlood
       id="feFlood525-8-4"
       flood-opacity="0.596078"
       flood-color="rgb(84,84,84)"
       result="flood"
       in="fbSourceGraphic" /><feComposite
       in2="fbSourceGraphic"
       id="feComposite527-6-1"
       in="flood"
       operator="in"
       result="composite1" /><feGaussianBlur
       id="feGaussianBlur529-9-4"
       in="composite1"
       stdDeviation="1.5"
       result="blur" /><feOffset
       id="feOffset531-1-0"
       dx="1"
       dy="1"
       result="offset" /><feComposite
       in2="offset"
       id="feComposite533-3-2"
       in="fbSourceGraphic"
       operator="over"
       result="composite2" /></filter></defs><sodipodi:namedview
   id="namedview469"
   pagecolor="#ffffff"
   bordercolor="#000000"
   borderopacity="0.25"
   inkscape:showpageshadow="2"
   inkscape:pageopacity="0.0"
   inkscape:pagecheckerboard="0"
   inkscape:deskcolor="#d1d1d1"
   showgrid="false"
   inkscape:zoom="1.8355263"
   inkscape:cx="96.974911"
   inkscape:cy="159.08244"
   inkscape:window-width="1920"
   inkscape:window-height="1017"
   inkscape:window-x="-8"
   inkscape:window-y="-8"
   inkscape:window-maximized="1"
   inkscape:current-layer="text187" />
    
    
    
    
<g
   id="g1032"
   style="clip-rule:evenodd;fill-rule:evenodd;stroke-linejoin:round;stroke-miterlimit:2"
   inkscape:export-filename="splashscreen.png"
   inkscape:export-xdpi="96"
   inkscape:export-ydpi="96"><g
     id="g525"
     transform="translate(5.1756427,-61.835126)"
     inkscape:export-filename="splashscreen.png"
     inkscape:export-xdpi="96"
     inkscape:export-ydpi="96"
     style="clip-rule:evenodd;fill-rule:evenodd;stroke-linejoin:round;stroke-miterlimit:2"><g
       id="g537"
       style="clip-rule:evenodd;fill-rule:evenodd;stroke-linejoin:round;stroke-miterlimit:2;image-rendering:optimizeQuality;shape-rendering:geometricPrecision;text-rendering:geometricPrecision"
       transform="matrix(1.3614273,0,0,1.3163892,136.75439,206.23068)"><path
         style="opacity:1"
         fill="#888888"
         d="m 53.5,2.5 c 0.3333,0 0.6667,0 1,0 13.3408,-1.16298 26.0074,1.17036 38,7 0.4731,1.4063 1.4731,2.073 3,2 1.9044,0.2376 3.2377,1.2376 4,3 2.333,3 5,5.6667 8,8 0.237,1.291 -0.096,2.291 -1,3 -1.483,-1.5938 -2.983,-3.2605 -4.5,-5 -0.399,0.2284 -0.565,0.5618 -0.5,1 -0.667,-0.6667 -1.333,-1.3333 -2,-2 -0.6667,-1.3333 -1.6667,-2.3333 -3,-3 C 87.3167,8.38257 76.4833,4.71591 64,5.5 52.1093,4.7425 41.6093,8.07583 32.5,15.5 c -0.4175,-0.7216 -1.0842,-1.2216 -2,-1.5 2.52,-1.6971 4.8533,-3.5305 7,-5.5 1.0137,-1.17373 2.347,-1.8404 4,-2 4.4155,-0.3606 8.4155,-1.69393 12,-4 z"
         id="path535" /></g><g
       id="g541"
       style="clip-rule:evenodd;fill-rule:evenodd;stroke-linejoin:round;stroke-miterlimit:2;image-rendering:optimizeQuality;shape-rendering:geometricPrecision;text-rendering:geometricPrecision"
       transform="matrix(1.3614273,0,0,1.3163892,136.75439,206.23068)"><path
         style="opacity:1"
         fill="#434343"
         d="m 53.5,2.5 c -3.5845,2.30607 -7.5845,3.6394 -12,4 3.5845,-2.30607 7.5845,-3.6394 12,-4 z"
         id="path539" /></g><g
       id="g545"
       style="clip-rule:evenodd;fill-rule:evenodd;stroke-linejoin:round;stroke-miterlimit:2;image-rendering:optimizeQuality;shape-rendering:geometricPrecision;text-rendering:geometricPrecision"
       transform="matrix(1.3614273,0,0,1.3163892,136.75439,206.23068)"><path
         style="opacity:1"
         fill="#d2d2d2"
         d="M 96.5,16.5 C 78.3933,8.31739 59.7266,6.81739 40.5,12 c -1.9308,0.9022 -3.5975,2.0688 -5,3.5 -1.1522,1.125 -2.1522,1.125 -3,0 C 41.6093,8.07583 52.1093,4.7425 64,5.5 76.4833,4.71591 87.3167,8.38257 96.5,16.5 Z"
         id="path543" /></g><g
       id="g549"
       style="clip-rule:evenodd;fill-rule:evenodd;stroke-linejoin:round;stroke-miterlimit:2;image-rendering:optimizeQuality;shape-rendering:geometricPrecision;text-rendering:geometricPrecision"
       transform="matrix(1.3614273,0,0,1.3163892,136.75439,206.23068)"><path
         style="opacity:0.376"
         fill="#242424"
         d="m 54.5,2.5 c 11.1981,-2.049279 22.1981,-0.88261 33,3.5 2.0844,0.69724 3.7511,1.8639 5,3.5 -11.9926,-5.82964 -24.6592,-8.16298 -38,-7 z"
         id="path547" /></g><g
       id="g553"
       style="clip-rule:evenodd;fill-rule:evenodd;stroke-linejoin:round;stroke-miterlimit:2;image-rendering:optimizeQuality;shape-rendering:geometricPrecision;text-rendering:geometricPrecision"
       transform="matrix(1.3614273,0,0,1.3163892,136.75439,206.23068)"><path
         style="opacity:1"
         fill="#bebebe"
         d="m 96.5,16.5 c 1.3333,0.6667 2.3333,1.6667 3,3 0,0.6667 -0.3333,1 -1,1 -7.8501,-3.2248 -16.1834,-5.7248 -25,-7.5 -0.8279,-0.9147 -1.8279,-1.5814 -3,-2 -6,-0.6667 -12,-0.6667 -18,0 -5.4812,2.2162 -11.1479,3.7162 -17,4.5 1.4025,-1.4312 3.0692,-2.5978 5,-3.5 19.2266,-5.18261 37.8933,-3.68261 56,4.5 z"
         id="path551" /></g><g
       id="g557"
       style="clip-rule:evenodd;fill-rule:evenodd;stroke-linejoin:round;stroke-miterlimit:2;image-rendering:optimizeQuality;shape-rendering:geometricPrecision;text-rendering:geometricPrecision"
       transform="matrix(1.3614273,0,0,1.3163892,136.75439,206.23068)"><path
         style="opacity:0.137"
         fill="#282828"
         d="m 92.5,9.5 c 1.5269,-0.07298 2.5269,0.5937 3,2 -1.5269,0.073 -2.5269,-0.5937 -3,-2 z"
         id="path555" /></g><g
       id="g561"
       style="clip-rule:evenodd;fill-rule:evenodd;stroke-linejoin:round;stroke-miterlimit:2;image-rendering:optimizeQuality;shape-rendering:geometricPrecision;text-rendering:geometricPrecision"
       transform="matrix(1.3614273,0,0,1.3163892,136.75439,206.23068)"><path
         style="opacity:1"
         fill="#434343"
         d="m 37.5,8.5 c -2.1467,1.9695 -4.48,3.8029 -7,5.5 0.9158,0.2784 1.5825,0.7784 2,1.5 -1.2281,0.8065 -2.2281,1.8065 -3,3 0,-0.6667 -0.3333,-1 -1,-1 -0.3417,-0.8382 -1.0084,-1.1716 -2,-1 2.7724,-3.8871 6.4391,-6.55381 11,-8 z"
         id="path559" /></g><g
       id="g565"
       style="clip-rule:evenodd;fill-rule:evenodd;stroke-linejoin:round;stroke-miterlimit:2;image-rendering:optimizeQuality;shape-rendering:geometricPrecision;text-rendering:geometricPrecision"
       transform="matrix(1.3614273,0,0,1.3163892,136.75439,206.23068)"><path
         style="opacity:1"
         fill="#929292"
         d="m 98.5,20.5 c 0.6667,0 1,-0.3333 1,-1 0.667,0.6667 1.333,1.3333 2,2 0,2.6667 0,5.3333 0,8 -5.9421,-3.3149 -12.2754,-5.6483 -19,-7 -1.4348,1.4469 -2.4348,3.1136 -3,5 -10.6953,-7.9527 -21.362,-7.9527 -32,0 -0.5652,-1.8864 -1.5652,-3.5531 -3,-5 -5.6901,2.0074 -11.3568,4.0074 -17,6 -0.3064,-2.8854 0.0269,-5.5521 1,-8 -0.131,0.7389 0.0357,1.4056 0.5,2 9.3141,-5.2152 19.3141,-8.2152 30,-9 13.4868,1.1714 26.6534,3.5047 39.5,7 z"
         id="path563" /></g><g
       id="g569"
       style="clip-rule:evenodd;fill-rule:evenodd;stroke-linejoin:round;stroke-miterlimit:2;image-rendering:optimizeQuality;shape-rendering:geometricPrecision;text-rendering:geometricPrecision"
       transform="matrix(1.3614273,0,0,1.3163892,136.75439,206.23068)"><path
         style="opacity:1"
         fill="#a8a8a8"
         d="M 98.5,20.5 C 85.6534,17.0047 72.4868,14.6714 59,13.5 c -10.6859,0.7848 -20.6859,3.7848 -30,9 -0.4643,-0.5944 -0.631,-1.2611 -0.5,-2 0.3333,-0.6667 0.6667,-1.3333 1,-2 0.7719,-1.1935 1.7719,-2.1935 3,-3 0.8478,1.125 1.8478,1.125 3,0 5.8521,-0.7838 11.5188,-2.2838 17,-4.5 6,-0.6667 12,-0.6667 18,0 1.1721,0.4186 2.1721,1.0853 3,2 8.8166,1.7752 17.1499,4.2752 25,7.5 z"
         id="path567" /></g><g
       id="g573"
       style="clip-rule:evenodd;fill-rule:evenodd;stroke-linejoin:round;stroke-miterlimit:2;image-rendering:optimizeQuality;shape-rendering:geometricPrecision;text-rendering:geometricPrecision"
       transform="matrix(1.3614273,0,0,1.3163892,136.75439,206.23068)"><path
         style="opacity:0.071"
         fill="#222222"
         d="m 99.5,14.5 c 3.667,1.6667 6.333,4.3333 8,8 -3,-2.3333 -5.667,-5 -8,-8 z"
         id="path571" /></g><g
       id="g577"
       style="clip-rule:evenodd;fill-rule:evenodd;stroke-linejoin:round;stroke-miterlimit:2;image-rendering:optimizeQuality;shape-rendering:geometricPrecision;text-rendering:geometricPrecision"
       transform="matrix(1.3614273,0,0,1.3163892,136.75439,206.23068)"><path
         style="opacity:0.639"
         fill="#181819"
         d="m 26.5,16.5 c -1,1.6667 -2.3333,3 -4,4 0.3333,-2.3333 1.6667,-3.6667 4,-4 z"
         id="path575" /></g><g
       id="g581"
       style="clip-rule:evenodd;fill-rule:evenodd;stroke-linejoin:round;stroke-miterlimit:2;image-rendering:optimizeQuality;shape-rendering:geometricPrecision;text-rendering:geometricPrecision"
       transform="matrix(1.3614273,0,0,1.3163892,136.75439,206.23068)"><path
         style="opacity:1"
         fill="#757575"
         d="m 26.5,16.5 c 0.9916,-0.1716 1.6583,0.1618 2,1 -2.6667,3 -5.3333,6 -8,9 -0.5431,-0.06 -0.8764,-0.3933 -1,-1 1.4524,-1.4397 2.4524,-3.1064 3,-5 1.6667,-1 3,-2.3333 4,-4 z"
         id="path579" /></g><g
       id="g585"
       style="clip-rule:evenodd;fill-rule:evenodd;stroke-linejoin:round;stroke-miterlimit:2;image-rendering:optimizeQuality;shape-rendering:geometricPrecision;text-rendering:geometricPrecision"
       transform="matrix(1.3614273,0,0,1.3163892,136.75439,206.23068)"><path
         style="opacity:1"
         fill="#3f3f40"
         d="m 22.5,20.5 c -0.5476,1.8936 -1.5476,3.5603 -3,5 0.1236,0.6067 0.4569,0.94 1,1 -0.5568,2.5499 -1.8901,4.5499 -4,6 0.0654,-0.4382 -0.1012,-0.7716 -0.5,-1 -1.1889,1.7331 -2.3556,3.3998 -3.5,5 1.8176,-6.3063 5.1509,-11.6397 10,-16 z"
         id="path583" /></g><g
       id="g589"
       style="clip-rule:evenodd;fill-rule:evenodd;stroke-linejoin:round;stroke-miterlimit:2;image-rendering:optimizeQuality;shape-rendering:geometricPrecision;text-rendering:geometricPrecision"
       transform="matrix(1.3614273,0,0,1.3163892,136.75439,206.23068)"><path
         style="opacity:1"
         fill="#515151"
         d="m 107.5,22.5 c 4.535,4.3963 7.535,9.7296 9,16 -1.395,-1.5544 -2.061,-1.221 -2,1 0.656,1.9534 0.989,3.9534 1,6 -0.333,0 -0.667,0 -1,0 -0.639,-4.0272 -1.472,-8.0272 -2.5,-12 -1,-0.6667 -2,-1.3333 -3,-2 -0.585,-2.1614 -1.418,-4.1614 -2.5,-6 0.904,-0.709 1.237,-1.709 1,-3 z"
         id="path587" /></g><g
       id="g593"
       style="clip-rule:evenodd;fill-rule:evenodd;stroke-linejoin:round;stroke-miterlimit:2;image-rendering:optimizeQuality;shape-rendering:geometricPrecision;text-rendering:geometricPrecision"
       transform="matrix(1.3614273,0,0,1.3163892,136.75439,206.23068)"><path
         style="opacity:1"
         fill="#929292"
         d="m 116.5,38.5 c 1.522,6.071 2.522,12.2377 3,18.5 -0.223,4.1839 -0.557,8.3505 -1,12.5 -2.234,6.4795 -5.068,12.8128 -8.5,19 -2.334,3.5 -5.168,6.5 -8.5,9 -0.438,0.0654 -0.772,-0.1012 -1,-0.5 4.063,-3.8771 7.063,-8.3771 9,-13.5 0.815,-0.9293 1.648,-1.9293 2.5,-3 4.513,-11.3833 5.68,-23.0499 3.5,-35 -0.011,-2.0466 -0.344,-4.0466 -1,-6 -0.061,-2.221 0.605,-2.5544 2,-1 z"
         id="path591" /></g><g
       id="g597"
       style="clip-rule:evenodd;fill-rule:evenodd;stroke-linejoin:round;stroke-miterlimit:2;image-rendering:optimizeQuality;shape-rendering:geometricPrecision;text-rendering:geometricPrecision"
       transform="matrix(1.3614273,0,0,1.3163892,136.75439,206.23068)"><path
         style="opacity:0.929"
         fill="#424242"
         d="M 12.5,36.5 C 9.85662,46.9805 8.85662,57.6472 9.5,68.5 8.34434,61.0113 8.17767,53.3446 9,45.5 c 0.50531,-3.365 1.672,-6.365 3.5,-9 z"
         id="path595" /></g><g
       id="g601"
       style="clip-rule:evenodd;fill-rule:evenodd;stroke-linejoin:round;stroke-miterlimit:2;image-rendering:optimizeQuality;shape-rendering:geometricPrecision;text-rendering:geometricPrecision"
       transform="matrix(1.3614273,0,0,1.3163892,136.75439,206.23068)"><path
         style="opacity:0.47"
         fill="#2e2e2e"
         d="m 116.5,38.5 c 1.433,2.7823 2.6,5.7823 3.5,9 0.667,6.3333 0.667,12.6667 0,19 -0.232,1.2375 -0.732,2.2375 -1.5,3 0.443,-4.1495 0.777,-8.3161 1,-12.5 -0.478,-6.2623 -1.478,-12.429 -3,-18.5 z"
         id="path599" /></g><g
       id="g605"
       style="clip-rule:evenodd;fill-rule:evenodd;stroke-linejoin:round;stroke-miterlimit:2;image-rendering:optimizeQuality;shape-rendering:geometricPrecision;text-rendering:geometricPrecision"
       transform="matrix(1.3614273,0,0,1.3163892,136.75439,206.23068)"><path
         style="opacity:1"
         fill="#0c0c0c"
         d="m 28.5,17.5 c 0.6667,0 1,0.3333 1,1 -0.3333,0.6667 -0.6667,1.3333 -1,2 -0.9731,2.4479 -1.3064,5.1146 -1,8 -0.7905,0.9013 -1.7905,1.5679 -3,2 -1.3717,1.0116 -2.705,2.0116 -4,3 -1.2359,4.2012 -1.2359,8.5345 0,13 0.3925,1.7838 1.0592,3.4505 2,5 3.2825,7.2202 8.9491,10.2202 17,9 2.4212,-0.06 4.7545,-0.3934 7,-1 11.2292,10.5222 22.5625,10.5222 34,0 6.312,1.2995 12.6453,1.1328 19,-0.5 4.061,-3.2907 6.727,-7.4574 8,-12.5 1.071,-4.4891 1.071,-8.8224 0,-13 0,-0.6667 -0.333,-1 -1,-1 -1.399,-1.3897 -3.066,-2.3897 -5,-3 0,-2.6667 0,-5.3333 0,-8 -0.065,-0.4382 0.101,-0.7716 0.5,-1 1.517,1.7395 3.017,3.4062 4.5,5 1.082,1.8386 1.915,3.8386 2.5,6 1,0.6667 2,1.3333 3,2 1.028,3.9728 1.861,7.9728 2.5,12 0.166,4.3461 -0.001,8.6794 -0.5,13 -0.574,2.8192 -1.907,5.1525 -4,7 -3,-1 -6,-2 -9,-3 C 93.269,68.1151 84.769,72.2817 75.5,75 57.2061,78.6163 41.2061,74.2829 27.5,62 24.4016,61.7287 21.5683,62.5621 19,64.5 15.103,61.2607 13.603,57.0941 14.5,52 c 0.287,-5.8857 0.9536,-11.7191 2,-17.5 0,-0.6667 0,-1.3333 0,-2 2.1099,-1.4501 3.4432,-3.4501 4,-6 2.6667,-3 5.3333,-6 8,-9 z"
         id="path603" /></g><g
       id="g609"
       style="clip-rule:evenodd;fill-rule:evenodd;stroke-linejoin:round;stroke-miterlimit:2;image-rendering:optimizeQuality;shape-rendering:geometricPrecision;text-rendering:geometricPrecision"
       transform="matrix(1.3614273,0,0,1.3163892,136.75439,206.23068)"><path
         style="opacity:1"
         fill="#686868"
         d="m 107.5,33.5 c 1.071,4.1776 1.071,8.5109 0,13 -0.667,0.3333 -1.333,0.6667 -2,1 -6.2748,0.918 -12.6082,1.2513 -19,1 0,-2.6667 0,-5.3333 0,-8 6.5859,1.1258 13.2526,1.2925 20,0.5 0.935,-2.3806 1.268,-4.8806 1,-7.5 z"
         id="path607" /></g><g
       id="g613"
       style="clip-rule:evenodd;fill-rule:evenodd;stroke-linejoin:round;stroke-miterlimit:2;image-rendering:optimizeQuality;shape-rendering:geometricPrecision;text-rendering:geometricPrecision"
       transform="matrix(1.3614273,0,0,1.3163892,136.75439,206.23068)"><path
         style="opacity:1"
         fill="#747474"
         d="m 20.5,33.5 c 0,1.6667 0,3.3333 0,5 6.6667,0 13.3333,0 20,0 0,2.3333 0,4.6667 0,7 -6.5779,0.9601 -13.2446,1.2934 -20,1 -1.2359,-4.4655 -1.2359,-8.7988 0,-13 z"
         id="path611" /></g><g
       id="g617"
       style="clip-rule:evenodd;fill-rule:evenodd;stroke-linejoin:round;stroke-miterlimit:2;image-rendering:optimizeQuality;shape-rendering:geometricPrecision;text-rendering:geometricPrecision"
       transform="matrix(1.3614273,0,0,1.3163892,136.75439,206.23068)"><path
         style="opacity:1"
         fill="#939393"
         d="m 106.5,32.5 c 0.667,0 1,0.3333 1,1 0.268,2.6194 -0.065,5.1194 -1,7.5 -6.7474,0.7925 -13.4141,0.6258 -20,-0.5 -0.538,-1.6172 -0.8713,-3.2839 -1,-5 6.675,0.1663 13.3417,-4e-4 20,-0.5 0.752,-0.6708 1.086,-1.5041 1,-2.5 z"
         id="path615" /></g><g
       id="g621"
       style="clip-rule:evenodd;fill-rule:evenodd;stroke-linejoin:round;stroke-miterlimit:2;image-rendering:optimizeQuality;shape-rendering:geometricPrecision;text-rendering:geometricPrecision"
       transform="matrix(1.3614273,0,0,1.3163892,136.75439,206.23068)"><path
         style="opacity:1"
         fill="#9d9d9d"
         d="m 24.5,30.5 c 2.5866,1.3164 5.5866,1.983 9,2 3.6382,-0.405 6.9715,-0.405 10,0 -1.0139,2.0739 -2.0139,4.0739 -3,6 -6.6667,0 -13.3333,0 -20,0 0,-1.6667 0,-3.3333 0,-5 1.295,-0.9884 2.6283,-1.9884 4,-3 z"
         id="path619" /></g><g
       id="g625"
       style="clip-rule:evenodd;fill-rule:evenodd;stroke-linejoin:round;stroke-miterlimit:2;image-rendering:optimizeQuality;shape-rendering:geometricPrecision;text-rendering:geometricPrecision"
       transform="matrix(1.3614273,0,0,1.3163892,136.75439,206.23068)"><path
         style="opacity:1"
         fill="#b4b4b4"
         d="m 101.5,29.5 c 1.934,0.6103 3.601,1.6103 5,3 0.086,0.9959 -0.248,1.8292 -1,2.5 -6.6583,0.4996 -13.325,0.6663 -20,0.5 -1.9884,-2.6283 -3.9884,-5.295 -6,-8 0.5652,-1.8864 1.5652,-3.5531 3,-5 6.7246,1.3517 13.0579,3.6851 19,7 z"
         id="path623" /></g><g
       id="g629"
       style="clip-rule:evenodd;fill-rule:evenodd;stroke-linejoin:round;stroke-miterlimit:2;image-rendering:optimizeQuality;shape-rendering:geometricPrecision;text-rendering:geometricPrecision"
       transform="matrix(1.3614273,0,0,1.3163892,136.75439,206.23068)"><path
         style="opacity:1"
         fill="#bdbdbd"
         d="m 47.5,27.5 c -1.3637,1.6911 -2.697,3.3577 -4,5 -3.0285,-0.405 -6.3618,-0.405 -10,0 -3.4134,-0.017 -6.4134,-0.6836 -9,-2 1.2095,-0.4321 2.2095,-1.0987 3,-2 5.6432,-1.9926 11.3099,-3.9926 17,-6 1.4348,1.4469 2.4348,3.1136 3,5 z"
         id="path627" /></g><g
       id="g633"
       style="clip-rule:evenodd;fill-rule:evenodd;stroke-linejoin:round;stroke-miterlimit:2;image-rendering:optimizeQuality;shape-rendering:geometricPrecision;text-rendering:geometricPrecision"
       transform="matrix(1.3614273,0,0,1.3163892,136.75439,206.23068)"><path
         style="opacity:1"
         fill="#f7f7f7"
         d="m 79.5,27.5 c 2.0116,2.705 4.0116,5.3717 6,8 0.1287,1.7161 0.462,3.3828 1,5 0,2.6667 0,5.3333 0,8 -0.9408,1.5495 -1.6075,3.2162 -2,5 -0.9411,2.2721 -2.2745,4.2721 -4,6 -11.4375,10.5222 -22.7708,10.5222 -34,0 -1.7255,-1.7279 -3.0589,-3.7279 -4,-6 -1.2496,-2.506 -1.9162,-5.1726 -2,-8 0,-2.3333 0,-4.6667 0,-7 0.9861,-1.9261 1.9861,-3.9261 3,-6 1.303,-1.6423 2.6363,-3.3089 4,-5 10.638,-7.9527 21.3047,-7.9527 32,0 z"
         id="path631" /></g><g
       id="g637"
       style="clip-rule:evenodd;fill-rule:evenodd;stroke-linejoin:round;stroke-miterlimit:2;image-rendering:optimizeQuality;shape-rendering:geometricPrecision;text-rendering:geometricPrecision"
       transform="matrix(1.3614273,0,0,1.3163892,136.75439,206.23068)"><path
         style="opacity:1"
         fill="#565656"
         d="m 73.5,43.5 c 3.9113,3.341 4.9113,7.341 3,12 0.1621,-2.0273 -0.0045,-4.0273 -0.5,-6 -0.6708,-0.7524 -1.5041,-1.0858 -2.5,-1 -1.1266,-0.6217 -2.1266,-1.455 -3,-2.5 -5.033,-0.8289 -10.033,-0.6623 -15,0.5 -1.6713,2.0098 -2.338,4.3431 -2,7 -0.79,-1.1085 -1.29,-2.4419 -1.5,-4 -0.7083,0.8805 -1.5416,1.5472 -2.5,2 -0.4844,-3.2882 0.5156,-5.9548 3,-8 7,-1.3333 14,-1.3333 21,0 z"
         id="path635" /></g><g
       id="g641"
       style="clip-rule:evenodd;fill-rule:evenodd;stroke-linejoin:round;stroke-miterlimit:2;image-rendering:optimizeQuality;shape-rendering:geometricPrecision;text-rendering:geometricPrecision"
       transform="matrix(1.3614273,0,0,1.3163892,136.75439,206.23068)"><path
         style="opacity:1"
         fill="#7b7b7b"
         d="m 73.5,43.5 c -7,-1.3333 -14,-1.3333 -21,0 -0.9584,-0.4528 -1.7917,-1.1195 -2.5,-2 -1.5823,-10.086 2.7511,-14.7527 13,-14 10.2449,-1.4173 14.9116,2.916 14,13 -1.0391,1.2101 -2.2058,2.2101 -3.5,3 z"
         id="path639" /></g><g
       id="g645"
       style="clip-rule:evenodd;fill-rule:evenodd;stroke-linejoin:round;stroke-miterlimit:2;image-rendering:optimizeQuality;shape-rendering:geometricPrecision;text-rendering:geometricPrecision"
       transform="matrix(1.3614273,0,0,1.3163892,136.75439,206.23068)"><path
         style="opacity:1"
         fill="#fcfcfc"
         d="m 55.5,31.5 c 5.0111,-0.1659 10.0111,7e-4 15,0.5 3.4779,2.7065 3.8112,5.7065 1,9 -5.3333,0.6667 -10.6667,0.6667 -16,0 -2.6119,-3.1641 -2.6119,-6.3307 0,-9.5 z"
         id="path643" /></g><g
       id="g649"
       style="clip-rule:evenodd;fill-rule:evenodd;stroke-linejoin:round;stroke-miterlimit:2;image-rendering:optimizeQuality;shape-rendering:geometricPrecision;text-rendering:geometricPrecision"
       transform="matrix(1.3614273,0,0,1.3163892,136.75439,206.23068)"><path
         style="opacity:0.281"
         fill="#020202"
         d="m 9.5,68.5 c 1.7659,3.7848 3.2659,7.7848 4.5,12 1.4442,3.9109 3.6109,7.2442 6.5,10 4.1264,6.7959 9.7931,11.796 17,15 1.1594,1.75 2.826,2.75 5,3 13.2248,6.137 26.5582,6.47 40,1 2.9422,-0.804 5.6089,-2.138 8,-4 4.2321,-1.9 7.8988,-4.567 11,-8 3.332,-2.5 6.166,-5.5 8.5,-9 3.432,-6.1872 6.266,-12.5205 8.5,-19 5.725,29.8075 -6.275,48.308 -36,55.5 -12.6667,0.667 -25.3333,0.667 -38,0 C 24.6967,120.547 11.8634,108.714 6,89.5 5.65364,82.2448 6.8203,75.2448 9.5,68.5 Z"
         id="path647" /></g><g
       id="g653"
       style="clip-rule:evenodd;fill-rule:evenodd;stroke-linejoin:round;stroke-miterlimit:2;image-rendering:optimizeQuality;shape-rendering:geometricPrecision;text-rendering:geometricPrecision"
       transform="matrix(1.3614273,0,0,1.3163892,136.75439,206.23068)"><path
         style="opacity:1"
         fill="#2a2a2a"
         d="m 16.5,34.5 c -1.0464,5.7809 -1.713,11.6143 -2,17.5 -0.897,5.0941 0.603,9.2607 4.5,12.5 2.5683,-1.9379 5.4016,-2.7713 8.5,-2.5 13.7061,12.2829 29.7061,16.6163 48,13 9.269,-2.7183 17.769,-6.8849 25.5,-12.5 3,1 6,2 9,3 2.093,-1.8475 3.426,-4.1808 4,-7 0.499,-4.3206 0.666,-8.6539 0.5,-13 0.333,0 0.667,0 1,0 0.145,8.7034 -0.355,17.3701 -1.5,26 -1.792,3.2473 -3.292,6.5806 -4.5,10 -1.871,0.3588 -3.371,1.3588 -4.5,3 -1,-1.3333 -2,-1.3333 -3,0 -5.5116,-3.3384 -11.3449,-6.005 -17.5,-8 -0.3809,3.5244 -1.3809,6.8577 -3,10 -5.467,-1.7076 -11.1337,-2.7076 -17,-3 -5.8146,0.3908 -11.8146,0.8908 -18,1.5 -0.5,0.5 -1,1 -1.5,1.5 -0.8947,-3.7103 -1.8947,-7.377 -3,-11 -6.0211,2.8494 -12.0211,5.8494 -18,9 -0.6708,-0.7524 -1.5041,-1.0858 -2.5,-1 -1.0236,-2.0116 -2.5236,-3.6783 -4.5,-5 -3.6887,-9.9872 -5.1887,-20.3205 -4.5,-31 0.1538,-4.7888 1.4871,-9.1222 4,-13 z"
         id="path651" /></g><g
       id="g657"
       style="clip-rule:evenodd;fill-rule:evenodd;stroke-linejoin:round;stroke-miterlimit:2;image-rendering:optimizeQuality;shape-rendering:geometricPrecision;text-rendering:geometricPrecision"
       transform="matrix(1.3614273,0,0,1.3163892,136.75439,206.23068)"><path
         style="opacity:1"
         fill="#2d2d2d"
         d="m 107.5,46.5 c -1.273,5.0426 -3.939,9.2093 -8,12.5 -6.3547,1.6328 -12.688,1.7995 -19,0.5 1.7255,-1.7279 3.0589,-3.7279 4,-6 6.2531,-0.7932 12.5865,-1.2932 19,-1.5 1.082,-1.3297 1.749,-2.8297 2,-4.5 0.667,-0.3333 1.333,-0.6667 2,-1 z"
         id="path655" /></g><g
       id="g661"
       style="clip-rule:evenodd;fill-rule:evenodd;stroke-linejoin:round;stroke-miterlimit:2;image-rendering:optimizeQuality;shape-rendering:geometricPrecision;text-rendering:geometricPrecision"
       transform="matrix(1.3614273,0,0,1.3163892,136.75439,206.23068)"><path
         style="opacity:1"
         fill="#2d2d2d"
         d="m 22.5,51.5 c 6.6989,0.6282 13.3656,1.2949 20,2 0.9411,2.2721 2.2745,4.2721 4,6 -2.2455,0.6066 -4.5788,0.94 -7,1 -8.0509,1.2202 -13.7175,-1.7798 -17,-9 z"
         id="path659" /></g><g
       id="g665"
       style="clip-rule:evenodd;fill-rule:evenodd;stroke-linejoin:round;stroke-miterlimit:2;image-rendering:optimizeQuality;shape-rendering:geometricPrecision;text-rendering:geometricPrecision"
       transform="matrix(1.3614273,0,0,1.3163892,136.75439,206.23068)"><path
         style="opacity:1"
         fill="#272727"
         d="m 73.5,48.5 c 0.9959,-0.0858 1.8292,0.2476 2.5,1 0.4955,1.9727 0.6621,3.9727 0.5,6 -1.1253,1.6288 -2.4586,3.1288 -4,4.5 -6,0.6667 -12,0.6667 -18,0 -3.2118,-2.0194 -4.8784,-4.8527 -5,-8.5 0.9584,-0.4528 1.7917,-1.1195 2.5,-2 0.21,1.5581 0.71,2.8915 1.5,4 0.4528,0.9584 1.1195,1.7917 2,2.5 5,0.6667 10,0.6667 15,0 2.5414,-1.8484 3.5414,-4.3484 3,-7.5 z"
         id="path663" /></g><g
       id="g669"
       style="clip-rule:evenodd;fill-rule:evenodd;stroke-linejoin:round;stroke-miterlimit:2;image-rendering:optimizeQuality;shape-rendering:geometricPrecision;text-rendering:geometricPrecision"
       transform="matrix(1.3614273,0,0,1.3163892,136.75439,206.23068)"><path
         style="opacity:1"
         fill="#4f4f4f"
         d="m 105.5,47.5 c -0.251,1.6703 -0.918,3.1703 -2,4.5 -6.4135,0.2068 -12.7469,0.7068 -19,1.5 0.3925,-1.7838 1.0592,-3.4505 2,-5 6.3918,0.2513 12.7252,-0.082 19,-1 z"
         id="path667" /></g><g
       id="g673"
       style="clip-rule:evenodd;fill-rule:evenodd;stroke-linejoin:round;stroke-miterlimit:2;image-rendering:optimizeQuality;shape-rendering:geometricPrecision;text-rendering:geometricPrecision"
       transform="matrix(1.3614273,0,0,1.3163892,136.75439,206.23068)"><path
         style="opacity:1"
         fill="#555555"
         d="m 40.5,45.5 c 0.0838,2.8274 0.7504,5.494 2,8 -6.6344,-0.7051 -13.3011,-1.3718 -20,-2 -0.9408,-1.5495 -1.6075,-3.2162 -2,-5 6.7554,0.2934 13.4221,-0.0399 20,-1 z"
         id="path671" /></g><g
       id="g677"
       style="clip-rule:evenodd;fill-rule:evenodd;stroke-linejoin:round;stroke-miterlimit:2;image-rendering:optimizeQuality;shape-rendering:geometricPrecision;text-rendering:geometricPrecision"
       transform="matrix(1.3614273,0,0,1.3163892,136.75439,206.23068)"><path
         style="opacity:1"
         fill="#f5f5f5"
         d="m 73.5,48.5 c 0.5414,3.1516 -0.4586,5.6516 -3,7.5 -5,0.6667 -10,0.6667 -15,0 -0.8805,-0.7083 -1.5472,-1.5416 -2,-2.5 -0.338,-2.6569 0.3287,-4.9902 2,-7 4.967,-1.1623 9.967,-1.3289 15,-0.5 0.8734,1.045 1.8734,1.8783 3,2.5 z"
         id="path675" /></g><g
       id="g681"
       style="clip-rule:evenodd;fill-rule:evenodd;stroke-linejoin:round;stroke-miterlimit:2;image-rendering:optimizeQuality;shape-rendering:geometricPrecision;text-rendering:geometricPrecision"
       transform="matrix(1.3614273,0,0,1.3163892,136.75439,206.23068)"><path
         style="opacity:1"
         fill="#979797"
         d="m 16.5,32.5 c 0,0.6667 0,1.3333 0,2 -2.5129,3.8778 -3.8462,8.2112 -4,13 -2.68784,14.4825 0.1455,27.8158 8.5,40 0.7401,1.2494 0.5735,2.2494 -0.5,3 -2.8891,-2.7558 -5.0558,-6.0891 -6.5,-10 -1.2341,-4.2152 -2.7341,-8.2152 -4.5,-12 -0.64338,-10.8528 0.35662,-21.5195 3,-32 1.1444,-1.6002 2.3111,-3.2669 3.5,-5 0.3988,0.2284 0.5654,0.5618 0.5,1 z"
         id="path679" /></g><g
       id="g685"
       style="clip-rule:evenodd;fill-rule:evenodd;stroke-linejoin:round;stroke-miterlimit:2;image-rendering:optimizeQuality;shape-rendering:geometricPrecision;text-rendering:geometricPrecision"
       transform="matrix(1.3614273,0,0,1.3163892,136.75439,206.23068)"><path
         style="opacity:1"
         fill="#555555"
         d="m 115.5,45.5 c 2.18,11.9501 1.013,23.6167 -3.5,35 -0.852,1.0707 -1.685,2.0707 -2.5,3 0,-0.6667 0,-1.3333 0,-2 1.208,-3.4194 2.708,-6.7527 4.5,-10 1.145,-8.6299 1.645,-17.2966 1.5,-26 z"
         id="path683" /></g><g
       id="g689"
       style="clip-rule:evenodd;fill-rule:evenodd;stroke-linejoin:round;stroke-miterlimit:2;image-rendering:optimizeQuality;shape-rendering:geometricPrecision;text-rendering:geometricPrecision"
       transform="matrix(1.3614273,0,0,1.3163892,136.75439,206.23068)"><path
         style="opacity:1"
         fill="#565656"
         d="m 12.5,47.5 c -0.6887,10.6795 0.8113,21.0128 4.5,31 1.9764,1.3217 3.4764,2.9884 4.5,5 1.5457,3.4193 3.379,6.7526 5.5,10 2.843,2.511 5.343,5.3443 7.5,8.5 1.8325,0.748 3.4991,1.748 5,3 -0.5944,0.464 -1.2611,0.631 -2,0.5 -7.2069,-3.204 -12.8736,-8.2041 -17,-15 1.0735,-0.7506 1.2401,-1.7506 0.5,-3 C 12.6455,75.3158 9.81216,61.9825 12.5,47.5 Z"
         id="path687" /></g><g
       id="g693"
       style="clip-rule:evenodd;fill-rule:evenodd;stroke-linejoin:round;stroke-miterlimit:2;image-rendering:optimizeQuality;shape-rendering:geometricPrecision;text-rendering:geometricPrecision"
       transform="matrix(1.3614273,0,0,1.3163892,136.75439,206.23068)"><path
         style="opacity:1"
         fill="#393939"
         d="m 109.5,81.5 c 0,0.6667 0,1.3333 0,2 -3.942,4.7931 -7.775,9.7931 -11.5,15 -2.58,2.372 -5.4134,4.372 -8.5,6 0.1236,0.607 0.4569,0.94 1,1 -2.3911,1.862 -5.0578,3.196 -8,4 -0.7389,0.131 -1.4056,-0.036 -2,-0.5 5.5337,-3.459 5.2003,-5.626 -1,-6.5 -11.2988,-0.355 -22.6321,0.145 -34,1.5 -0.7135,1.343 -0.3802,2.676 1,4 -1.2932,0.49 -2.6266,0.657 -4,0.5 -2.174,-0.25 -3.8406,-1.25 -5,-3 0.7389,0.131 1.4056,-0.036 2,-0.5 -1.5009,-1.252 -3.1675,-2.252 -5,-3 -2.157,-3.1557 -4.657,-5.989 -7.5,-8.5 -2.121,-3.2474 -3.9543,-6.5807 -5.5,-10 0.9959,-0.0858 1.8292,0.2476 2.5,1 5.9789,-3.1506 11.9789,-6.1506 18,-9 1.1053,3.623 2.1053,7.2897 3,11 0.5,-0.5 1,-1 1.5,-1.5 6.1854,-0.6092 12.1854,-1.1092 18,-1.5 5.8663,0.2924 11.533,1.2924 17,3 1.6191,-3.1423 2.6191,-6.4756 3,-10 6.1551,1.995 11.9884,4.6616 17.5,8 1,-1.3333 2,-1.3333 3,0 1.129,-1.6412 2.629,-2.6412 4.5,-3 z"
         id="path691" /></g><g
       id="g697"
       style="clip-rule:evenodd;fill-rule:evenodd;stroke-linejoin:round;stroke-miterlimit:2;image-rendering:optimizeQuality;shape-rendering:geometricPrecision;text-rendering:geometricPrecision"
       transform="matrix(1.3614273,0,0,1.3163892,136.75439,206.23068)"><path
         style="opacity:1"
         fill="#292929"
         d="m 82.5,109.5 c -13.4418,5.47 -26.7752,5.137 -40,-1 1.3734,0.157 2.7068,-0.01 4,-0.5 -1.3802,-1.324 -1.7135,-2.657 -1,-4 11.3679,-1.355 22.7012,-1.855 34,-1.5 6.2003,0.874 6.5337,3.041 1,6.5 0.5944,0.464 1.2611,0.631 2,0.5 z"
         id="path695" /></g><g
       id="g701"
       style="clip-rule:evenodd;fill-rule:evenodd;stroke-linejoin:round;stroke-miterlimit:2;image-rendering:optimizeQuality;shape-rendering:geometricPrecision;text-rendering:geometricPrecision"
       transform="matrix(1.3614273,0,0,1.3163892,136.75439,206.23068)"><path
         style="opacity:1"
         fill="#676767"
         d="m 109.5,83.5 c -1.937,5.1229 -4.937,9.6229 -9,13.5 0.228,0.3988 0.562,0.5654 1,0.5 -3.1012,3.433 -6.7679,6.1 -11,8 -0.5431,-0.06 -0.8764,-0.393 -1,-1 3.0866,-1.628 5.92,-3.628 8.5,-6 3.725,-5.2069 7.558,-10.2069 11.5,-15 z"
         id="path699" /></g></g></g><g
   aria-label="Pool League Stats"
   transform="matrix(0.69606849,0,0,0.92334268,53.780303,24.604662)"
   id="text187"
   style="font-size:32px;white-space:pre;shape-inside:url(#rect189-4-6);display:inline;fill:#ffffff;filter:url(#filter265-3-4)"
   inkscape:transform-center-x="0.49930763"
   inkscape:transform-center-y="-0.8402098"><path
     d="m 136.32713,163.32274 q 1.62245,0.94704 2.68064,2.08612 1.05138,1.12021 1.47435,2.29073 0.52536,1.45372 0.16002,2.80471 -0.38167,1.34143 -1.91224,2.83159 l -1.89408,1.84406 9.0955,5.30916 -1.89407,1.84406 -24.40215,-14.24383 3.86468,-3.76264 q 1.28184,-1.248 2.54842,-1.89414 1.25019,-0.65569 2.72557,-0.86709 1.74727,-0.24634 3.5803,0.1383 1.84259,0.37539 3.97306,1.61897 z m -1.88868,1.96639 q -1.2619,-0.73658 -2.45431,-1.03039 -1.19242,-0.2938 -2.30852,-0.12593 -0.96722,0.15046 -1.77336,0.60356 -0.81296,0.4342 -1.71217,1.30967 l -1.87494,1.82544 9.75103,5.6918 1.59753,-1.55536 q 1.14792,-1.11761 1.52121,-2.01701 0.35691,-0.90896 0.0363,-1.79629 -0.33701,-0.89692 -1.02386,-1.58087 -0.67725,-0.69326 -1.75888,-1.32462 z"
     style="text-align:center;text-anchor:middle"
     id="path398" /><path
     d="m 156.40857,156.64953 q 3.94546,3.05761 4.66092,5.97707 0.71548,2.91944 -1.91655,4.84955 -2.65441,1.94654 -6.50588,1.32679 -3.84026,-0.62797 -7.78572,-3.68557 -3.94548,-3.05761 -4.67213,-5.96886 -0.72994,-2.93064 1.9245,-4.87718 2.63201,-1.93011 6.49792,-1.29916 3.85146,0.61974 7.79694,3.67736 z m -2.17281,1.59337 q -3.13615,-2.43042 -5.60563,-2.90829 -2.48395,-0.48908 -4.17515,0.75112 -1.7136,1.25662 -1.13366,3.14195 0.57668,1.86592 3.71283,4.29632 3.03498,2.35201 5.56227,2.87469 2.51285,0.51147 4.21525,-0.73694 1.68001,-1.23199 1.08561,-3.12851 -0.59764,-1.91594 -3.66152,-4.29034 z"
     style="text-align:center;text-anchor:middle"
     id="path400" /><path
     d="m 170.09017,144.06492 q 4.12594,2.91909 5.01689,5.81098 0.89097,2.89189 -1.62184,4.9103 -2.53416,2.03557 -6.41905,1.54859 -3.87419,-0.49559 -8.00014,-3.41468 -4.12595,-2.9191 -5.02758,-5.8024 -0.90603,-2.90258 1.62811,-4.93816 2.51279,-2.0184 6.41277,-1.52072 3.88489,0.48699 8.01084,3.40609 z m -2.07438,1.66625 q -3.2796,-2.32031 -5.77537,-2.71297 -2.51089,-0.40336 -4.12549,0.89357 -1.63597,1.3141 -0.94284,3.17759 0.68872,1.84419 3.96832,4.1645 3.17381,2.24546 5.73004,2.68089 2.54111,0.42475 4.16639,-0.88076 1.60391,-1.28834 0.89566,-3.16251 -0.71267,-1.89347 -3.91671,-4.16031 z"
     style="text-align:center;text-anchor:middle"
     id="path402" /><path
     d="m 186.23414,144.81977 -2.25293,1.42102 -20.69547,-18.64653 2.25293,-1.42103 z"
     style="text-align:center;text-anchor:middle"
     id="path404" /><path
     d="m 207.55942,134.06836 -12.78024,5.50403 -15.30899,-20.20148 2.68629,-1.15689 13.49946,17.81366 10.09396,-4.34713 z"
     style="text-align:center;text-anchor:middle"
     id="path406" /><path
     d="m 220.48642,121.86885 -11.77757,3.89187 q 0.85707,1.47399 1.94143,2.42929 1.07602,0.94102 2.25652,1.38688 1.14357,0.441 2.35933,0.4487 1.23006,0.003 2.46076,-0.40371 1.6314,-0.53909 2.90266,-1.7269 1.27725,-1.20683 1.61234,-2.0682 l 0.14309,-0.0473 1.70583,2.93365 q -1.02666,1.02168 -2.21874,1.87621 -1.19207,0.85455 -2.75191,1.37 -3.97832,1.31462 -7.45893,-0.0943 -3.48893,-1.42319 -5.79387,-5.3872 -2.27998,-3.92109 -1.48741,-6.92969 0.80688,-3.01331 4.29865,-4.16717 3.23418,-1.06872 6.07845,0.24334 2.85858,1.30734 4.88061,4.78479 z m -3.81707,-1.19533 q -1.2458,-2.11324 -2.97881,-2.92244 -1.71868,-0.81395 -3.86526,-0.10462 -2.16089,0.71407 -2.70825,2.4133 -0.53307,1.6945 0.39359,3.64024 z"
     style="text-align:center;text-anchor:middle"
     id="path408" /><path
     d="m 241.6067,127.86862 -2.83478,0.53377 -0.5977,-1.80396 q -0.2936,0.32907 -0.78975,0.92174 -0.48601,0.57466 -1.00197,0.96171 -0.59697,0.48282 -1.44634,0.88432 -0.84436,0.41667 -2.08742,0.65073 -2.28905,0.43101 -4.38305,-0.78521 -2.09398,-1.21622 -2.87249,-3.56591 -0.63788,-1.92523 -0.21105,-3.26179 0.43697,-1.35457 1.74204,-2.32504 1.32023,-0.97331 3.40764,-1.62403 2.08743,-0.65073 4.53337,-1.24012 l -0.14566,-0.43962 q -0.32145,-0.9702 -0.88107,-1.54123 -0.54446,-0.5739 -1.30169,-0.81784 -0.72189,-0.23448 -1.61099,-0.19591 -0.8891,0.0386 -1.81382,0.21269 -1.12178,0.21122 -2.40083,0.77415 -1.28406,0.54777 -2.56868,1.38555 l -0.15159,0.0285 -0.95933,-2.89543 q 0.75843,-0.38437 2.24459,-0.9541 1.48615,-0.56972 3.01724,-0.85801 1.78879,-0.33682 3.20811,-0.28196 1.42945,0.0368 2.63571,0.56665 1.18607,0.5175 2.05298,1.52993 0.86691,1.01244 1.40936,2.64964 z m -4.21602,-3.63504 -1.56204,-4.71454 q -1.27859,0.32125 -3.002,0.80683 -1.70825,0.4827 -2.64365,0.96483 -1.11238,0.57986 -1.62423,1.46539 -0.51688,0.87036 -0.09,2.1589 0.48218,1.45529 1.60753,2.03255 1.12032,0.56209 2.92427,0.22242 1.50078,-0.28258 2.55298,-1.0927 1.04718,-0.82527 1.8371,-1.84368 z"
     style="text-align:center;text-anchor:middle"
     id="path410" /><path
     d="m 258.84507,126.31775 q 0,4.4375 -2.01562,6.51563 -2.01563,2.07812 -6.20313,2.07812 -1.39062,0 -2.71875,-0.20312 -1.3125,-0.1875 -2.59375,-0.54688 v -3 h 0.15625 q 0.71875,0.28125 2.28125,0.6875 1.5625,0.42188 3.125,0.42188 1.5,0 2.48438,-0.35938 0.98437,-0.35937 1.53125,-1 0.54687,-0.60937 0.78125,-1.46875 0.23437,-0.85937 0.23437,-1.92187 v -1.59375 q -1.32812,1.0625 -2.54687,1.59375 -1.20313,0.51562 -3.07813,0.51562 -3.125,0 -4.96875,-2.25 -1.82812,-2.26562 -1.82812,-6.375 0,-2.25 0.625,-3.875 0.64062,-1.64062 1.73437,-2.82812 1.01563,-1.10938 2.46875,-1.71875 1.45313,-0.625 2.89063,-0.625 1.51562,0 2.53125,0.3125 1.03125,0.29687 2.17187,0.92187 l 0.1875,-0.75 h 2.75 z m -2.9375,-2.8125 v -9.51562 q -1.17187,-0.53125 -2.1875,-0.75 -1,-0.23438 -2,-0.23438 -2.42187,0 -3.8125,1.625 -1.39062,1.625 -1.39062,4.71875 0,2.9375 1.03125,4.45313 1.03125,1.51562 3.42187,1.51562 1.28125,0 2.5625,-0.48437 1.29688,-0.5 2.375,-1.32813 z"
     style="text-align:center;text-anchor:middle"
     id="path412" /><path
     d="m 277.11493,131.46114 -2.89633,-0.36948 0.42883,-1.91034 q -1.72293,0.96873 -3.20159,1.41399 -1.47864,0.44525 -3.09627,0.23889 -2.71145,-0.3459 -3.8512,-2.18694 -1.13629,-1.85645 -0.41697,-5.06089 l 2.50727,-11.16933 2.89632,0.36948 -2.19947,9.7982 q -0.29396,1.30951 -0.38167,2.26499 -0.0842,0.94008 0.1676,1.65364 0.2638,0.73093 0.85709,1.12356 0.59329,0.39263 1.85658,0.55379 1.12463,0.14347 2.58096,-0.27294 1.47174,-0.41444 2.83122,-1.176 l 2.88422,-12.84857 2.89632,0.36948 z"
     style="text-align:center;text-anchor:middle"
     id="path414" /><path
     d="m 297.54198,126.11243 -12.43401,-2.47272 q -0.54455,1.55614 -0.48328,2.81261 0.0666,1.24136 0.62333,2.1439 0.53185,0.88143 1.47765,1.45735 0.9609,0.57892 2.2602,0.83731 1.72233,0.34251 3.69768,0.008 1.99574,-0.34645 2.96866,-0.86398 l 0.15108,0.03 -1.0838,3.09718 q -1.64676,0.31889 -3.2852,0.42936 -1.63846,0.11048 -3.28524,-0.21702 -4.20007,-0.83525 -5.76391,-3.57018 -1.55856,-2.75004 -0.0941,-6.935 1.4486,-4.13963 4.5509,-6.12437 3.1174,-1.98173 6.80379,-1.24863 3.41444,0.67903 4.55977,3.03985 1.16044,2.36384 -0.12426,6.03511 z m -2.00349,-2.7254 q 0.76737,-2.239 0.0776,-3.6851 -0.67466,-1.44309 -2.94088,-1.89377 -2.28133,-0.45369 -4.11159,0.62054 -1.81516,1.07721 -2.69433,3.03544 z"
     style="text-align:center;text-anchor:middle"
     id="path416" /><path
     d="m 320.07073,136.09371 q -0.62777,1.27434 -1.84167,2.35125 -1.19924,1.08102 -2.69424,1.64587 -1.63361,0.60938 -3.46067,0.69791 -1.81241,0.0926 -4.00954,-0.52247 -2.35825,-0.66021 -4.03132,-1.62864 -1.65841,-0.96431 -3.1808,-2.37391 l 1.78951,-3.63259 0.20506,0.0574 q 0.97689,1.84025 2.77673,3.19417 1.79983,1.35394 3.70401,1.88704 2.69515,0.75453 4.68709,0.16212 2.00659,-0.5883 2.8364,-2.27278 0.71436,-1.4501 0.33577,-2.33948 -0.36394,-0.88526 -1.62644,-1.67207 -0.95425,-0.6005 -2.14943,-1.15179 -1.18053,-0.54718 -2.47168,-1.242 -2.59715,-1.42714 -3.27452,-3.30022 -0.65551,-1.88362 0.52065,-4.27116 1.34935,-2.7391 4.52234,-3.83424 3.18021,-1.10979 6.73957,-0.11331 2.29966,0.64381 4.00202,1.62043 1.70235,0.97662 2.86426,2.03529 l -1.68849,3.42753 -0.20506,-0.0574 q -0.72551,-1.40319 -2.42237,-2.66163 -1.67501,-1.26898 -3.79891,-1.86359 -2.32896,-0.65201 -4.22601,-0.0831 -1.88241,0.57307 -2.63285,2.09642 -0.67107,1.36223 -0.35042,2.33538 0.32065,0.97316 1.89096,1.87948 0.83643,0.46751 2.42052,1.24434 1.5841,0.77684 2.63367,1.42069 2.114,1.32522 2.70219,2.97331 0.58819,1.64809 -0.56633,3.9917 z"
     style="text-align:center;text-anchor:middle"
     id="path418" /><path
     d="m 325.43124,148.20016 q -0.86002,-0.13132 -1.80131,-0.39003 -0.92787,-0.25267 -1.58577,-0.54787 -2.29597,-1.03018 -2.51567,-2.80161 -0.2197,-1.77144 1.93228,-4.49706 l 6.2969,-7.97546 -1.70518,-0.76511 1.67493,-2.12141 1.70519,0.7651 3.40288,-4.30997 2.52421,1.1326 -3.40287,4.30997 5.20955,2.3375 -1.67493,2.12142 -5.20956,-2.3375 -5.39583,6.83419 q -0.93288,1.18155 -1.40922,1.87698 -0.46573,0.68201 -0.59933,1.40394 -0.12864,0.66961 0.18016,1.15364 0.33283,0.47664 1.39353,0.95257 0.61763,0.27713 1.42677,0.40381 0.81975,0.11325 1.21055,0.12494 l 0.13427,0.0603 z"
     style="text-align:center;text-anchor:middle"
     id="path420" /><path
     d="m 338.41923,157.05935 -2.3405,-1.31859 1.47651,-1.48941 q -0.52383,0.0365 -1.44665,0.12128 -0.89791,0.0793 -1.62188,0.0226 -0.87363,-0.0435 -1.82323,-0.28592 -0.96199,-0.22987 -1.98831,-0.80808 -1.88992,-1.06474 -1.96334,-3.05672 -0.0734,-1.99199 1.84976,-3.93197 1.57577,-1.58954 3.21943,-2.18503 1.66859,-0.60094 3.49105,-0.45199 1.83498,0.15602 3.8233,0.96409 1.98831,0.80808 4.1402,1.86436 l 0.35982,-0.36297 q 0.79409,-0.80103 1.02735,-1.48888 0.24576,-0.6808 0.0179,-1.27734 -0.21527,-0.56991 -0.8169,-1.06491 -0.60164,-0.495 -1.36512,-0.92513 -0.92619,-0.5218 -2.31329,-0.91314 -1.37471,-0.40387 -3.04785,-0.62474 l -0.12516,-0.0705 2.36987,-2.39057 q 0.87448,0.20008 2.39949,0.70813 1.525,0.50804 2.78913,1.22022 1.47689,0.83205 2.31763,1.69583 0.86567,0.85831 1.08353,1.89785 0.21776,1.01997 -0.27497,2.16632 -0.49272,1.14637 -1.83275,2.4981 z m 1.0716,-4.76051 3.85878,-3.89248 q -1.1384,-0.54385 -2.72687,-1.24367 -1.57593,-0.69278 -2.66277,-0.93446 -1.29918,-0.28329 -2.53295,-0.0226 -1.22137,0.2482 -2.27602,1.31206 -1.19113,1.20154 -1.07318,2.2238 0.13036,1.00975 1.61978,1.84885 1.23908,0.69807 2.73688,0.80067 1.51022,0.0901 3.05635,-0.0922 z"
     style="text-align:center;text-anchor:middle"
     id="path422" /><path
     d="m 347.51824,165.70349 q -0.79571,-0.27887 -1.63104,-0.69589 -0.82414,-0.4088 -1.37262,-0.8115 -1.91406,-1.40535 -1.57983,-3.16658 0.33424,-1.76122 3.2699,-4.03348 l 8.59005,-6.64886 -1.42156,-1.04374 2.28489,-1.76855 1.42156,1.04374 4.64209,-3.59307 2.10436,1.54506 -4.6421,3.59307 4.34303,3.18874 -2.28489,1.76855 -4.34303,-3.18874 -7.36084,5.69743 q -1.2726,0.98501 -1.95089,1.57756 -0.66383,0.58134 -1.01703,1.2599 -0.3322,0.62854 -0.18161,1.15351 0.17623,0.52199 1.06051,1.17125 0.51489,0.37805 1.26255,0.64346 0.76213,0.25421 1.13854,0.33427 l 0.11194,0.0822 z"
     style="text-align:center;text-anchor:middle"
     id="path424"
     inkscape:transform-center-x="-1.0896057"
     inkscape:transform-center-y="-0.54480287" /><path
     d="m 364.25135,173.61583 q -2.24011,1.69211 -5.07953,1.71924 -2.82836,0.0354 -5.25042,-1.78679 -1.37139,-1.03176 -2.097,-2.21784 -0.6999,-1.18881 -0.96162,-2.15835 l 3.08931,-2.33358 0.11059,0.0832 q 0.003,1.48153 0.62319,2.83087 0.63448,1.33828 1.74045,2.17034 1.37139,1.03176 2.73122,1.17183 1.35982,0.14006 2.61897,-0.81107 0.96633,-0.72994 1.04387,-1.42215 0.0775,-0.69221 -0.76551,-1.85627 -0.31061,-0.43237 -0.85379,-1.10593 -0.53212,-0.66523 -0.9133,-1.26107 -1.05476,-1.65445 -0.64235,-2.99981 0.4381,-1.34809 2.04864,-2.56465 1.01025,-0.76311 2.21304,-1.20477 1.21385,-0.43334 2.55809,-0.4816 1.30748,-0.0539 2.65392,0.36312 1.37214,0.41423 2.55553,1.30454 1.10596,0.83207 1.86801,1.95726 0.78775,1.12246 1.02735,2.07535 l -2.9429,2.22298 -0.11059,-0.0832 q -0.0203,-1.18525 -0.63236,-2.44042 -0.59741,-1.26624 -1.69231,-2.08998 -1.13915,-0.85703 -2.51003,-1.00541 -1.35625,-0.15944 -2.49827,0.70321 -1.01025,0.76311 -1.04713,1.50799 -0.0479,0.73655 0.66956,1.76201 0.3994,0.56539 0.93152,1.23062 0.54318,0.67356 0.87233,1.14195 1.00957,1.42179 0.72599,2.81991 -0.29823,1.40918 -2.08447,2.75846 z"
     style="text-align:center;text-anchor:middle"
     id="path426"
     inkscape:transform-center-x="-1.0896057"
     inkscape:transform-center-y="1.0896057" /></g><text
   xml:space="preserve"
   id="text455-2"
   style="font-size:32px;text-align:center;white-space:pre;shape-inside:url(#rect457-3-2);clip-rule:evenodd;display:inline;fill:#ffffff;fill-rule:evenodd;stroke-linejoin:round;stroke-miterlimit:2;filter:url(#filter521-2-6)"
   transform="matrix(0.52304326,0,0,0.62209007,102.55696,63.466862)"><tspan
     x="123.80957"
     y="299.96215"
     id="tspan632">WileySoftware</tspan></text></svg>
