<?xml version="1.0" encoding="UTF-8" standalone="no"?>
<svg
   width="456"
   height="456"
   viewBox="0 0 456 456"
   version="1.1"
   xml:space="preserve"
   style="fill-rule:evenodd;clip-rule:evenodd;stroke-linejoin:round;stroke-miterlimit:2;"
   id="svg24"
   sodipodi:docname="splashscreen.svg"
   inkscape:version="1.2.2 (732a01da63, 2022-12-09)"
   xmlns:inkscape="http://www.inkscape.org/namespaces/inkscape"
   xmlns:sodipodi="http://sodipodi.sourceforge.net/DTD/sodipodi-0.dtd"
   xmlns="http://www.w3.org/2000/svg"
   xmlns:svg="http://www.w3.org/2000/svg"><defs
   id="defs28"><rect
     x="67.555556"
     y="270.76703"
     width="342.681"
     height="90.437276"
     id="rect457" /><rect
     x="103.51254"
     y="323.0681"
     width="226.09319"
     height="35.412186"
     id="rect399" /><rect
     x="78.451613"
     y="92.616487"
     width="338.86738"
     height="246.7957"
     id="rect189" /><filter
     style="color-interpolation-filters:sRGB;"
     inkscape:label="Drop Shadow"
     id="filter265"
     x="-0.058419701"
     y="-0.29631059"
     width="1.1259675"
     height="1.6389197"><feFlood
       flood-opacity="0.596078"
       flood-color="rgb(0,0,0)"
       result="flood"
       id="feFlood255" /><feComposite
       in="flood"
       in2="SourceGraphic"
       operator="in"
       result="composite1"
       id="feComposite257" /><feGaussianBlur
       in="composite1"
       stdDeviation="3"
       result="blur"
       id="feGaussianBlur259" /><feOffset
       dx="1"
       dy="1"
       result="offset"
       id="feOffset261" /><feComposite
       in="SourceGraphic"
       in2="offset"
       operator="over"
       result="fbSourceGraphic"
       id="feComposite263" /><feColorMatrix
       result="fbSourceGraphicAlpha"
       in="fbSourceGraphic"
       values="0 0 0 -1 0 0 0 0 -1 0 0 0 0 -1 0 0 0 0 1 0"
       id="feColorMatrix267" /><feFlood
       id="feFlood269"
       flood-opacity="0.596078"
       flood-color="rgb(84,84,84)"
       result="flood"
       in="fbSourceGraphic" /><feComposite
       in2="fbSourceGraphic"
       id="feComposite271"
       in="flood"
       operator="in"
       result="composite1" /><feGaussianBlur
       id="feGaussianBlur273"
       in="composite1"
       stdDeviation="3"
       result="blur" /><feOffset
       id="feOffset275"
       dx="1"
       dy="1"
       result="offset" /><feComposite
       in2="offset"
       id="feComposite277"
       in="fbSourceGraphic"
       operator="over"
       result="fbSourceGraphic" /><feColorMatrix
       result="fbSourceGraphicAlpha"
       in="fbSourceGraphic"
       values="0 0 0 -1 0 0 0 0 -1 0 0 0 0 -1 0 0 0 0 1 0"
       id="feColorMatrix279" /><feFlood
       id="feFlood281"
       flood-opacity="0.596078"
       flood-color="rgb(84,84,84)"
       result="flood"
       in="fbSourceGraphic" /><feComposite
       in2="fbSourceGraphic"
       id="feComposite283"
       in="flood"
       operator="in"
       result="composite1" /><feGaussianBlur
       id="feGaussianBlur285"
       in="composite1"
       stdDeviation="2"
       result="blur" /><feOffset
       id="feOffset287"
       dx="1"
       dy="1"
       result="offset" /><feComposite
       in2="offset"
       id="feComposite289"
       in="fbSourceGraphic"
       operator="over"
       result="composite2" /></filter><filter
     style="color-interpolation-filters:sRGB;"
     inkscape:label="Drop Shadow"
     id="filter521"
     x="-0.035529707"
     y="-0.27178969"
     width="1.0795189"
     height="1.6082912"><feFlood
       flood-opacity="0.596078"
       flood-color="rgb(84,84,84)"
       result="flood"
       id="feFlood511" /><feComposite
       in="flood"
       in2="SourceGraphic"
       operator="in"
       result="composite1"
       id="feComposite513" /><feGaussianBlur
       in="composite1"
       stdDeviation="2"
       result="blur"
       id="feGaussianBlur515" /><feOffset
       dx="1"
       dy="1"
       result="offset"
       id="feOffset517" /><feComposite
       in="SourceGraphic"
       in2="offset"
       operator="over"
       result="fbSourceGraphic"
       id="feComposite519" /><feColorMatrix
       result="fbSourceGraphicAlpha"
       in="fbSourceGraphic"
       values="0 0 0 -1 0 0 0 0 -1 0 0 0 0 -1 0 0 0 0 1 0"
       id="feColorMatrix523" /><feFlood
       id="feFlood525"
       flood-opacity="0.596078"
       flood-color="rgb(84,84,84)"
       result="flood"
       in="fbSourceGraphic" /><feComposite
       in2="fbSourceGraphic"
       id="feComposite527"
       in="flood"
       operator="in"
       result="composite1" /><feGaussianBlur
       id="feGaussianBlur529"
       in="composite1"
       stdDeviation="1.5"
       result="blur" /><feOffset
       id="feOffset531"
       dx="1"
       dy="1"
       result="offset" /><feComposite
       in2="offset"
       id="feComposite533"
       in="fbSourceGraphic"
       operator="over"
       result="composite2" /></filter></defs><sodipodi:namedview
   id="namedview26"
   pagecolor="#ffffff"
   bordercolor="#000000"
   borderopacity="0.25"
   inkscape:showpageshadow="2"
   inkscape:pageopacity="0.0"
   inkscape:pagecheckerboard="0"
   inkscape:deskcolor="#d1d1d1"
   showgrid="true"
   inkscape:zoom="1.8355263"
   inkscape:cx="227.7276"
   inkscape:cy="230.45161"
   inkscape:window-width="1920"
   inkscape:window-height="1017"
   inkscape:window-x="-8"
   inkscape:window-y="-8"
   inkscape:window-maximized="1"
   inkscape:current-layer="layer1"><inkscape:grid
     type="xygrid"
     id="grid292" /></sodipodi:namedview>
    
    
    
    
<g
   inkscape:groupmode="layer"
   id="layer1"
   inkscape:label="Layer 1"><g
     id="g525"
     transform="translate(5.1756427,-42.767025)"><g
       id="g537"
       style="clip-rule:evenodd;fill-rule:evenodd;stroke-linejoin:round;stroke-miterlimit:2;image-rendering:optimizeQuality;shape-rendering:geometricPrecision;text-rendering:geometricPrecision"
       transform="matrix(1.3614273,0,0,1.3163892,136.75439,206.23068)"><path
         style="opacity:1"
         fill="#888888"
         d="m 53.5,2.5 c 0.3333,0 0.6667,0 1,0 13.3408,-1.16298 26.0074,1.17036 38,7 0.4731,1.4063 1.4731,2.073 3,2 1.9044,0.2376 3.2377,1.2376 4,3 2.333,3 5,5.6667 8,8 0.237,1.291 -0.096,2.291 -1,3 -1.483,-1.5938 -2.983,-3.2605 -4.5,-5 -0.399,0.2284 -0.565,0.5618 -0.5,1 -0.667,-0.6667 -1.333,-1.3333 -2,-2 -0.6667,-1.3333 -1.6667,-2.3333 -3,-3 C 87.3167,8.38257 76.4833,4.71591 64,5.5 52.1093,4.7425 41.6093,8.07583 32.5,15.5 c -0.4175,-0.7216 -1.0842,-1.2216 -2,-1.5 2.52,-1.6971 4.8533,-3.5305 7,-5.5 1.0137,-1.17373 2.347,-1.8404 4,-2 4.4155,-0.3606 8.4155,-1.69393 12,-4 z"
         id="path535" /></g><g
       id="g541"
       style="clip-rule:evenodd;fill-rule:evenodd;stroke-linejoin:round;stroke-miterlimit:2;image-rendering:optimizeQuality;shape-rendering:geometricPrecision;text-rendering:geometricPrecision"
       transform="matrix(1.3614273,0,0,1.3163892,136.75439,206.23068)"><path
         style="opacity:1"
         fill="#434343"
         d="m 53.5,2.5 c -3.5845,2.30607 -7.5845,3.6394 -12,4 3.5845,-2.30607 7.5845,-3.6394 12,-4 z"
         id="path539" /></g><g
       id="g545"
       style="clip-rule:evenodd;fill-rule:evenodd;stroke-linejoin:round;stroke-miterlimit:2;image-rendering:optimizeQuality;shape-rendering:geometricPrecision;text-rendering:geometricPrecision"
       transform="matrix(1.3614273,0,0,1.3163892,136.75439,206.23068)"><path
         style="opacity:1"
         fill="#d2d2d2"
         d="M 96.5,16.5 C 78.3933,8.31739 59.7266,6.81739 40.5,12 c -1.9308,0.9022 -3.5975,2.0688 -5,3.5 -1.1522,1.125 -2.1522,1.125 -3,0 C 41.6093,8.07583 52.1093,4.7425 64,5.5 76.4833,4.71591 87.3167,8.38257 96.5,16.5 Z"
         id="path543" /></g><g
       id="g549"
       style="clip-rule:evenodd;fill-rule:evenodd;stroke-linejoin:round;stroke-miterlimit:2;image-rendering:optimizeQuality;shape-rendering:geometricPrecision;text-rendering:geometricPrecision"
       transform="matrix(1.3614273,0,0,1.3163892,136.75439,206.23068)"><path
         style="opacity:0.376"
         fill="#242424"
         d="m 54.5,2.5 c 11.1981,-2.049279 22.1981,-0.88261 33,3.5 2.0844,0.69724 3.7511,1.8639 5,3.5 -11.9926,-5.82964 -24.6592,-8.16298 -38,-7 z"
         id="path547" /></g><g
       id="g553"
       style="clip-rule:evenodd;fill-rule:evenodd;stroke-linejoin:round;stroke-miterlimit:2;image-rendering:optimizeQuality;shape-rendering:geometricPrecision;text-rendering:geometricPrecision"
       transform="matrix(1.3614273,0,0,1.3163892,136.75439,206.23068)"><path
         style="opacity:1"
         fill="#bebebe"
         d="m 96.5,16.5 c 1.3333,0.6667 2.3333,1.6667 3,3 0,0.6667 -0.3333,1 -1,1 -7.8501,-3.2248 -16.1834,-5.7248 -25,-7.5 -0.8279,-0.9147 -1.8279,-1.5814 -3,-2 -6,-0.6667 -12,-0.6667 -18,0 -5.4812,2.2162 -11.1479,3.7162 -17,4.5 1.4025,-1.4312 3.0692,-2.5978 5,-3.5 19.2266,-5.18261 37.8933,-3.68261 56,4.5 z"
         id="path551" /></g><g
       id="g557"
       style="clip-rule:evenodd;fill-rule:evenodd;stroke-linejoin:round;stroke-miterlimit:2;image-rendering:optimizeQuality;shape-rendering:geometricPrecision;text-rendering:geometricPrecision"
       transform="matrix(1.3614273,0,0,1.3163892,136.75439,206.23068)"><path
         style="opacity:0.137"
         fill="#282828"
         d="m 92.5,9.5 c 1.5269,-0.07298 2.5269,0.5937 3,2 -1.5269,0.073 -2.5269,-0.5937 -3,-2 z"
         id="path555" /></g><g
       id="g561"
       style="clip-rule:evenodd;fill-rule:evenodd;stroke-linejoin:round;stroke-miterlimit:2;image-rendering:optimizeQuality;shape-rendering:geometricPrecision;text-rendering:geometricPrecision"
       transform="matrix(1.3614273,0,0,1.3163892,136.75439,206.23068)"><path
         style="opacity:1"
         fill="#434343"
         d="m 37.5,8.5 c -2.1467,1.9695 -4.48,3.8029 -7,5.5 0.9158,0.2784 1.5825,0.7784 2,1.5 -1.2281,0.8065 -2.2281,1.8065 -3,3 0,-0.6667 -0.3333,-1 -1,-1 -0.3417,-0.8382 -1.0084,-1.1716 -2,-1 2.7724,-3.8871 6.4391,-6.55381 11,-8 z"
         id="path559" /></g><g
       id="g565"
       style="clip-rule:evenodd;fill-rule:evenodd;stroke-linejoin:round;stroke-miterlimit:2;image-rendering:optimizeQuality;shape-rendering:geometricPrecision;text-rendering:geometricPrecision"
       transform="matrix(1.3614273,0,0,1.3163892,136.75439,206.23068)"><path
         style="opacity:1"
         fill="#929292"
         d="m 98.5,20.5 c 0.6667,0 1,-0.3333 1,-1 0.667,0.6667 1.333,1.3333 2,2 0,2.6667 0,5.3333 0,8 -5.9421,-3.3149 -12.2754,-5.6483 -19,-7 -1.4348,1.4469 -2.4348,3.1136 -3,5 -10.6953,-7.9527 -21.362,-7.9527 -32,0 -0.5652,-1.8864 -1.5652,-3.5531 -3,-5 -5.6901,2.0074 -11.3568,4.0074 -17,6 -0.3064,-2.8854 0.0269,-5.5521 1,-8 -0.131,0.7389 0.0357,1.4056 0.5,2 9.3141,-5.2152 19.3141,-8.2152 30,-9 13.4868,1.1714 26.6534,3.5047 39.5,7 z"
         id="path563" /></g><g
       id="g569"
       style="clip-rule:evenodd;fill-rule:evenodd;stroke-linejoin:round;stroke-miterlimit:2;image-rendering:optimizeQuality;shape-rendering:geometricPrecision;text-rendering:geometricPrecision"
       transform="matrix(1.3614273,0,0,1.3163892,136.75439,206.23068)"><path
         style="opacity:1"
         fill="#a8a8a8"
         d="M 98.5,20.5 C 85.6534,17.0047 72.4868,14.6714 59,13.5 c -10.6859,0.7848 -20.6859,3.7848 -30,9 -0.4643,-0.5944 -0.631,-1.2611 -0.5,-2 0.3333,-0.6667 0.6667,-1.3333 1,-2 0.7719,-1.1935 1.7719,-2.1935 3,-3 0.8478,1.125 1.8478,1.125 3,0 5.8521,-0.7838 11.5188,-2.2838 17,-4.5 6,-0.6667 12,-0.6667 18,0 1.1721,0.4186 2.1721,1.0853 3,2 8.8166,1.7752 17.1499,4.2752 25,7.5 z"
         id="path567" /></g><g
       id="g573"
       style="clip-rule:evenodd;fill-rule:evenodd;stroke-linejoin:round;stroke-miterlimit:2;image-rendering:optimizeQuality;shape-rendering:geometricPrecision;text-rendering:geometricPrecision"
       transform="matrix(1.3614273,0,0,1.3163892,136.75439,206.23068)"><path
         style="opacity:0.071"
         fill="#222222"
         d="m 99.5,14.5 c 3.667,1.6667 6.333,4.3333 8,8 -3,-2.3333 -5.667,-5 -8,-8 z"
         id="path571" /></g><g
       id="g577"
       style="clip-rule:evenodd;fill-rule:evenodd;stroke-linejoin:round;stroke-miterlimit:2;image-rendering:optimizeQuality;shape-rendering:geometricPrecision;text-rendering:geometricPrecision"
       transform="matrix(1.3614273,0,0,1.3163892,136.75439,206.23068)"><path
         style="opacity:0.639"
         fill="#181819"
         d="m 26.5,16.5 c -1,1.6667 -2.3333,3 -4,4 0.3333,-2.3333 1.6667,-3.6667 4,-4 z"
         id="path575" /></g><g
       id="g581"
       style="clip-rule:evenodd;fill-rule:evenodd;stroke-linejoin:round;stroke-miterlimit:2;image-rendering:optimizeQuality;shape-rendering:geometricPrecision;text-rendering:geometricPrecision"
       transform="matrix(1.3614273,0,0,1.3163892,136.75439,206.23068)"><path
         style="opacity:1"
         fill="#757575"
         d="m 26.5,16.5 c 0.9916,-0.1716 1.6583,0.1618 2,1 -2.6667,3 -5.3333,6 -8,9 -0.5431,-0.06 -0.8764,-0.3933 -1,-1 1.4524,-1.4397 2.4524,-3.1064 3,-5 1.6667,-1 3,-2.3333 4,-4 z"
         id="path579" /></g><g
       id="g585"
       style="clip-rule:evenodd;fill-rule:evenodd;stroke-linejoin:round;stroke-miterlimit:2;image-rendering:optimizeQuality;shape-rendering:geometricPrecision;text-rendering:geometricPrecision"
       transform="matrix(1.3614273,0,0,1.3163892,136.75439,206.23068)"><path
         style="opacity:1"
         fill="#3f3f40"
         d="m 22.5,20.5 c -0.5476,1.8936 -1.5476,3.5603 -3,5 0.1236,0.6067 0.4569,0.94 1,1 -0.5568,2.5499 -1.8901,4.5499 -4,6 0.0654,-0.4382 -0.1012,-0.7716 -0.5,-1 -1.1889,1.7331 -2.3556,3.3998 -3.5,5 1.8176,-6.3063 5.1509,-11.6397 10,-16 z"
         id="path583" /></g><g
       id="g589"
       style="clip-rule:evenodd;fill-rule:evenodd;stroke-linejoin:round;stroke-miterlimit:2;image-rendering:optimizeQuality;shape-rendering:geometricPrecision;text-rendering:geometricPrecision"
       transform="matrix(1.3614273,0,0,1.3163892,136.75439,206.23068)"><path
         style="opacity:1"
         fill="#515151"
         d="m 107.5,22.5 c 4.535,4.3963 7.535,9.7296 9,16 -1.395,-1.5544 -2.061,-1.221 -2,1 0.656,1.9534 0.989,3.9534 1,6 -0.333,0 -0.667,0 -1,0 -0.639,-4.0272 -1.472,-8.0272 -2.5,-12 -1,-0.6667 -2,-1.3333 -3,-2 -0.585,-2.1614 -1.418,-4.1614 -2.5,-6 0.904,-0.709 1.237,-1.709 1,-3 z"
         id="path587" /></g><g
       id="g593"
       style="clip-rule:evenodd;fill-rule:evenodd;stroke-linejoin:round;stroke-miterlimit:2;image-rendering:optimizeQuality;shape-rendering:geometricPrecision;text-rendering:geometricPrecision"
       transform="matrix(1.3614273,0,0,1.3163892,136.75439,206.23068)"><path
         style="opacity:1"
         fill="#929292"
         d="m 116.5,38.5 c 1.522,6.071 2.522,12.2377 3,18.5 -0.223,4.1839 -0.557,8.3505 -1,12.5 -2.234,6.4795 -5.068,12.8128 -8.5,19 -2.334,3.5 -5.168,6.5 -8.5,9 -0.438,0.0654 -0.772,-0.1012 -1,-0.5 4.063,-3.8771 7.063,-8.3771 9,-13.5 0.815,-0.9293 1.648,-1.9293 2.5,-3 4.513,-11.3833 5.68,-23.0499 3.5,-35 -0.011,-2.0466 -0.344,-4.0466 -1,-6 -0.061,-2.221 0.605,-2.5544 2,-1 z"
         id="path591" /></g><g
       id="g597"
       style="clip-rule:evenodd;fill-rule:evenodd;stroke-linejoin:round;stroke-miterlimit:2;image-rendering:optimizeQuality;shape-rendering:geometricPrecision;text-rendering:geometricPrecision"
       transform="matrix(1.3614273,0,0,1.3163892,136.75439,206.23068)"><path
         style="opacity:0.929"
         fill="#424242"
         d="M 12.5,36.5 C 9.85662,46.9805 8.85662,57.6472 9.5,68.5 8.34434,61.0113 8.17767,53.3446 9,45.5 c 0.50531,-3.365 1.672,-6.365 3.5,-9 z"
         id="path595" /></g><g
       id="g601"
       style="clip-rule:evenodd;fill-rule:evenodd;stroke-linejoin:round;stroke-miterlimit:2;image-rendering:optimizeQuality;shape-rendering:geometricPrecision;text-rendering:geometricPrecision"
       transform="matrix(1.3614273,0,0,1.3163892,136.75439,206.23068)"><path
         style="opacity:0.47"
         fill="#2e2e2e"
         d="m 116.5,38.5 c 1.433,2.7823 2.6,5.7823 3.5,9 0.667,6.3333 0.667,12.6667 0,19 -0.232,1.2375 -0.732,2.2375 -1.5,3 0.443,-4.1495 0.777,-8.3161 1,-12.5 -0.478,-6.2623 -1.478,-12.429 -3,-18.5 z"
         id="path599" /></g><g
       id="g605"
       style="clip-rule:evenodd;fill-rule:evenodd;stroke-linejoin:round;stroke-miterlimit:2;image-rendering:optimizeQuality;shape-rendering:geometricPrecision;text-rendering:geometricPrecision"
       transform="matrix(1.3614273,0,0,1.3163892,136.75439,206.23068)"><path
         style="opacity:1"
         fill="#0c0c0c"
         d="m 28.5,17.5 c 0.6667,0 1,0.3333 1,1 -0.3333,0.6667 -0.6667,1.3333 -1,2 -0.9731,2.4479 -1.3064,5.1146 -1,8 -0.7905,0.9013 -1.7905,1.5679 -3,2 -1.3717,1.0116 -2.705,2.0116 -4,3 -1.2359,4.2012 -1.2359,8.5345 0,13 0.3925,1.7838 1.0592,3.4505 2,5 3.2825,7.2202 8.9491,10.2202 17,9 2.4212,-0.06 4.7545,-0.3934 7,-1 11.2292,10.5222 22.5625,10.5222 34,0 6.312,1.2995 12.6453,1.1328 19,-0.5 4.061,-3.2907 6.727,-7.4574 8,-12.5 1.071,-4.4891 1.071,-8.8224 0,-13 0,-0.6667 -0.333,-1 -1,-1 -1.399,-1.3897 -3.066,-2.3897 -5,-3 0,-2.6667 0,-5.3333 0,-8 -0.065,-0.4382 0.101,-0.7716 0.5,-1 1.517,1.7395 3.017,3.4062 4.5,5 1.082,1.8386 1.915,3.8386 2.5,6 1,0.6667 2,1.3333 3,2 1.028,3.9728 1.861,7.9728 2.5,12 0.166,4.3461 -0.001,8.6794 -0.5,13 -0.574,2.8192 -1.907,5.1525 -4,7 -3,-1 -6,-2 -9,-3 C 93.269,68.1151 84.769,72.2817 75.5,75 57.2061,78.6163 41.2061,74.2829 27.5,62 24.4016,61.7287 21.5683,62.5621 19,64.5 15.103,61.2607 13.603,57.0941 14.5,52 c 0.287,-5.8857 0.9536,-11.7191 2,-17.5 0,-0.6667 0,-1.3333 0,-2 2.1099,-1.4501 3.4432,-3.4501 4,-6 2.6667,-3 5.3333,-6 8,-9 z"
         id="path603" /></g><g
       id="g609"
       style="clip-rule:evenodd;fill-rule:evenodd;stroke-linejoin:round;stroke-miterlimit:2;image-rendering:optimizeQuality;shape-rendering:geometricPrecision;text-rendering:geometricPrecision"
       transform="matrix(1.3614273,0,0,1.3163892,136.75439,206.23068)"><path
         style="opacity:1"
         fill="#686868"
         d="m 107.5,33.5 c 1.071,4.1776 1.071,8.5109 0,13 -0.667,0.3333 -1.333,0.6667 -2,1 -6.2748,0.918 -12.6082,1.2513 -19,1 0,-2.6667 0,-5.3333 0,-8 6.5859,1.1258 13.2526,1.2925 20,0.5 0.935,-2.3806 1.268,-4.8806 1,-7.5 z"
         id="path607" /></g><g
       id="g613"
       style="clip-rule:evenodd;fill-rule:evenodd;stroke-linejoin:round;stroke-miterlimit:2;image-rendering:optimizeQuality;shape-rendering:geometricPrecision;text-rendering:geometricPrecision"
       transform="matrix(1.3614273,0,0,1.3163892,136.75439,206.23068)"><path
         style="opacity:1"
         fill="#747474"
         d="m 20.5,33.5 c 0,1.6667 0,3.3333 0,5 6.6667,0 13.3333,0 20,0 0,2.3333 0,4.6667 0,7 -6.5779,0.9601 -13.2446,1.2934 -20,1 -1.2359,-4.4655 -1.2359,-8.7988 0,-13 z"
         id="path611" /></g><g
       id="g617"
       style="clip-rule:evenodd;fill-rule:evenodd;stroke-linejoin:round;stroke-miterlimit:2;image-rendering:optimizeQuality;shape-rendering:geometricPrecision;text-rendering:geometricPrecision"
       transform="matrix(1.3614273,0,0,1.3163892,136.75439,206.23068)"><path
         style="opacity:1"
         fill="#939393"
         d="m 106.5,32.5 c 0.667,0 1,0.3333 1,1 0.268,2.6194 -0.065,5.1194 -1,7.5 -6.7474,0.7925 -13.4141,0.6258 -20,-0.5 -0.538,-1.6172 -0.8713,-3.2839 -1,-5 6.675,0.1663 13.3417,-4e-4 20,-0.5 0.752,-0.6708 1.086,-1.5041 1,-2.5 z"
         id="path615" /></g><g
       id="g621"
       style="clip-rule:evenodd;fill-rule:evenodd;stroke-linejoin:round;stroke-miterlimit:2;image-rendering:optimizeQuality;shape-rendering:geometricPrecision;text-rendering:geometricPrecision"
       transform="matrix(1.3614273,0,0,1.3163892,136.75439,206.23068)"><path
         style="opacity:1"
         fill="#9d9d9d"
         d="m 24.5,30.5 c 2.5866,1.3164 5.5866,1.983 9,2 3.6382,-0.405 6.9715,-0.405 10,0 -1.0139,2.0739 -2.0139,4.0739 -3,6 -6.6667,0 -13.3333,0 -20,0 0,-1.6667 0,-3.3333 0,-5 1.295,-0.9884 2.6283,-1.9884 4,-3 z"
         id="path619" /></g><g
       id="g625"
       style="clip-rule:evenodd;fill-rule:evenodd;stroke-linejoin:round;stroke-miterlimit:2;image-rendering:optimizeQuality;shape-rendering:geometricPrecision;text-rendering:geometricPrecision"
       transform="matrix(1.3614273,0,0,1.3163892,136.75439,206.23068)"><path
         style="opacity:1"
         fill="#b4b4b4"
         d="m 101.5,29.5 c 1.934,0.6103 3.601,1.6103 5,3 0.086,0.9959 -0.248,1.8292 -1,2.5 -6.6583,0.4996 -13.325,0.6663 -20,0.5 -1.9884,-2.6283 -3.9884,-5.295 -6,-8 0.5652,-1.8864 1.5652,-3.5531 3,-5 6.7246,1.3517 13.0579,3.6851 19,7 z"
         id="path623" /></g><g
       id="g629"
       style="clip-rule:evenodd;fill-rule:evenodd;stroke-linejoin:round;stroke-miterlimit:2;image-rendering:optimizeQuality;shape-rendering:geometricPrecision;text-rendering:geometricPrecision"
       transform="matrix(1.3614273,0,0,1.3163892,136.75439,206.23068)"><path
         style="opacity:1"
         fill="#bdbdbd"
         d="m 47.5,27.5 c -1.3637,1.6911 -2.697,3.3577 -4,5 -3.0285,-0.405 -6.3618,-0.405 -10,0 -3.4134,-0.017 -6.4134,-0.6836 -9,-2 1.2095,-0.4321 2.2095,-1.0987 3,-2 5.6432,-1.9926 11.3099,-3.9926 17,-6 1.4348,1.4469 2.4348,3.1136 3,5 z"
         id="path627" /></g><g
       id="g633"
       style="clip-rule:evenodd;fill-rule:evenodd;stroke-linejoin:round;stroke-miterlimit:2;image-rendering:optimizeQuality;shape-rendering:geometricPrecision;text-rendering:geometricPrecision"
       transform="matrix(1.3614273,0,0,1.3163892,136.75439,206.23068)"><path
         style="opacity:1"
         fill="#f7f7f7"
         d="m 79.5,27.5 c 2.0116,2.705 4.0116,5.3717 6,8 0.1287,1.7161 0.462,3.3828 1,5 0,2.6667 0,5.3333 0,8 -0.9408,1.5495 -1.6075,3.2162 -2,5 -0.9411,2.2721 -2.2745,4.2721 -4,6 -11.4375,10.5222 -22.7708,10.5222 -34,0 -1.7255,-1.7279 -3.0589,-3.7279 -4,-6 -1.2496,-2.506 -1.9162,-5.1726 -2,-8 0,-2.3333 0,-4.6667 0,-7 0.9861,-1.9261 1.9861,-3.9261 3,-6 1.303,-1.6423 2.6363,-3.3089 4,-5 10.638,-7.9527 21.3047,-7.9527 32,0 z"
         id="path631" /></g><g
       id="g637"
       style="clip-rule:evenodd;fill-rule:evenodd;stroke-linejoin:round;stroke-miterlimit:2;image-rendering:optimizeQuality;shape-rendering:geometricPrecision;text-rendering:geometricPrecision"
       transform="matrix(1.3614273,0,0,1.3163892,136.75439,206.23068)"><path
         style="opacity:1"
         fill="#565656"
         d="m 73.5,43.5 c 3.9113,3.341 4.9113,7.341 3,12 0.1621,-2.0273 -0.0045,-4.0273 -0.5,-6 -0.6708,-0.7524 -1.5041,-1.0858 -2.5,-1 -1.1266,-0.6217 -2.1266,-1.455 -3,-2.5 -5.033,-0.8289 -10.033,-0.6623 -15,0.5 -1.6713,2.0098 -2.338,4.3431 -2,7 -0.79,-1.1085 -1.29,-2.4419 -1.5,-4 -0.7083,0.8805 -1.5416,1.5472 -2.5,2 -0.4844,-3.2882 0.5156,-5.9548 3,-8 7,-1.3333 14,-1.3333 21,0 z"
         id="path635" /></g><g
       id="g641"
       style="clip-rule:evenodd;fill-rule:evenodd;stroke-linejoin:round;stroke-miterlimit:2;image-rendering:optimizeQuality;shape-rendering:geometricPrecision;text-rendering:geometricPrecision"
       transform="matrix(1.3614273,0,0,1.3163892,136.75439,206.23068)"><path
         style="opacity:1"
         fill="#7b7b7b"
         d="m 73.5,43.5 c -7,-1.3333 -14,-1.3333 -21,0 -0.9584,-0.4528 -1.7917,-1.1195 -2.5,-2 -1.5823,-10.086 2.7511,-14.7527 13,-14 10.2449,-1.4173 14.9116,2.916 14,13 -1.0391,1.2101 -2.2058,2.2101 -3.5,3 z"
         id="path639" /></g><g
       id="g645"
       style="clip-rule:evenodd;fill-rule:evenodd;stroke-linejoin:round;stroke-miterlimit:2;image-rendering:optimizeQuality;shape-rendering:geometricPrecision;text-rendering:geometricPrecision"
       transform="matrix(1.3614273,0,0,1.3163892,136.75439,206.23068)"><path
         style="opacity:1"
         fill="#fcfcfc"
         d="m 55.5,31.5 c 5.0111,-0.1659 10.0111,7e-4 15,0.5 3.4779,2.7065 3.8112,5.7065 1,9 -5.3333,0.6667 -10.6667,0.6667 -16,0 -2.6119,-3.1641 -2.6119,-6.3307 0,-9.5 z"
         id="path643" /></g><g
       id="g649"
       style="clip-rule:evenodd;fill-rule:evenodd;stroke-linejoin:round;stroke-miterlimit:2;image-rendering:optimizeQuality;shape-rendering:geometricPrecision;text-rendering:geometricPrecision"
       transform="matrix(1.3614273,0,0,1.3163892,136.75439,206.23068)"><path
         style="opacity:0.281"
         fill="#020202"
         d="m 9.5,68.5 c 1.7659,3.7848 3.2659,7.7848 4.5,12 1.4442,3.9109 3.6109,7.2442 6.5,10 4.1264,6.7959 9.7931,11.796 17,15 1.1594,1.75 2.826,2.75 5,3 13.2248,6.137 26.5582,6.47 40,1 2.9422,-0.804 5.6089,-2.138 8,-4 4.2321,-1.9 7.8988,-4.567 11,-8 3.332,-2.5 6.166,-5.5 8.5,-9 3.432,-6.1872 6.266,-12.5205 8.5,-19 5.725,29.8075 -6.275,48.308 -36,55.5 -12.6667,0.667 -25.3333,0.667 -38,0 C 24.6967,120.547 11.8634,108.714 6,89.5 5.65364,82.2448 6.8203,75.2448 9.5,68.5 Z"
         id="path647" /></g><g
       id="g653"
       style="clip-rule:evenodd;fill-rule:evenodd;stroke-linejoin:round;stroke-miterlimit:2;image-rendering:optimizeQuality;shape-rendering:geometricPrecision;text-rendering:geometricPrecision"
       transform="matrix(1.3614273,0,0,1.3163892,136.75439,206.23068)"><path
         style="opacity:1"
         fill="#2a2a2a"
         d="m 16.5,34.5 c -1.0464,5.7809 -1.713,11.6143 -2,17.5 -0.897,5.0941 0.603,9.2607 4.5,12.5 2.5683,-1.9379 5.4016,-2.7713 8.5,-2.5 13.7061,12.2829 29.7061,16.6163 48,13 9.269,-2.7183 17.769,-6.8849 25.5,-12.5 3,1 6,2 9,3 2.093,-1.8475 3.426,-4.1808 4,-7 0.499,-4.3206 0.666,-8.6539 0.5,-13 0.333,0 0.667,0 1,0 0.145,8.7034 -0.355,17.3701 -1.5,26 -1.792,3.2473 -3.292,6.5806 -4.5,10 -1.871,0.3588 -3.371,1.3588 -4.5,3 -1,-1.3333 -2,-1.3333 -3,0 -5.5116,-3.3384 -11.3449,-6.005 -17.5,-8 -0.3809,3.5244 -1.3809,6.8577 -3,10 -5.467,-1.7076 -11.1337,-2.7076 -17,-3 -5.8146,0.3908 -11.8146,0.8908 -18,1.5 -0.5,0.5 -1,1 -1.5,1.5 -0.8947,-3.7103 -1.8947,-7.377 -3,-11 -6.0211,2.8494 -12.0211,5.8494 -18,9 -0.6708,-0.7524 -1.5041,-1.0858 -2.5,-1 -1.0236,-2.0116 -2.5236,-3.6783 -4.5,-5 -3.6887,-9.9872 -5.1887,-20.3205 -4.5,-31 0.1538,-4.7888 1.4871,-9.1222 4,-13 z"
         id="path651" /></g><g
       id="g657"
       style="clip-rule:evenodd;fill-rule:evenodd;stroke-linejoin:round;stroke-miterlimit:2;image-rendering:optimizeQuality;shape-rendering:geometricPrecision;text-rendering:geometricPrecision"
       transform="matrix(1.3614273,0,0,1.3163892,136.75439,206.23068)"><path
         style="opacity:1"
         fill="#2d2d2d"
         d="m 107.5,46.5 c -1.273,5.0426 -3.939,9.2093 -8,12.5 -6.3547,1.6328 -12.688,1.7995 -19,0.5 1.7255,-1.7279 3.0589,-3.7279 4,-6 6.2531,-0.7932 12.5865,-1.2932 19,-1.5 1.082,-1.3297 1.749,-2.8297 2,-4.5 0.667,-0.3333 1.333,-0.6667 2,-1 z"
         id="path655" /></g><g
       id="g661"
       style="clip-rule:evenodd;fill-rule:evenodd;stroke-linejoin:round;stroke-miterlimit:2;image-rendering:optimizeQuality;shape-rendering:geometricPrecision;text-rendering:geometricPrecision"
       transform="matrix(1.3614273,0,0,1.3163892,136.75439,206.23068)"><path
         style="opacity:1"
         fill="#2d2d2d"
         d="m 22.5,51.5 c 6.6989,0.6282 13.3656,1.2949 20,2 0.9411,2.2721 2.2745,4.2721 4,6 -2.2455,0.6066 -4.5788,0.94 -7,1 -8.0509,1.2202 -13.7175,-1.7798 -17,-9 z"
         id="path659" /></g><g
       id="g665"
       style="clip-rule:evenodd;fill-rule:evenodd;stroke-linejoin:round;stroke-miterlimit:2;image-rendering:optimizeQuality;shape-rendering:geometricPrecision;text-rendering:geometricPrecision"
       transform="matrix(1.3614273,0,0,1.3163892,136.75439,206.23068)"><path
         style="opacity:1"
         fill="#272727"
         d="m 73.5,48.5 c 0.9959,-0.0858 1.8292,0.2476 2.5,1 0.4955,1.9727 0.6621,3.9727 0.5,6 -1.1253,1.6288 -2.4586,3.1288 -4,4.5 -6,0.6667 -12,0.6667 -18,0 -3.2118,-2.0194 -4.8784,-4.8527 -5,-8.5 0.9584,-0.4528 1.7917,-1.1195 2.5,-2 0.21,1.5581 0.71,2.8915 1.5,4 0.4528,0.9584 1.1195,1.7917 2,2.5 5,0.6667 10,0.6667 15,0 2.5414,-1.8484 3.5414,-4.3484 3,-7.5 z"
         id="path663" /></g><g
       id="g669"
       style="clip-rule:evenodd;fill-rule:evenodd;stroke-linejoin:round;stroke-miterlimit:2;image-rendering:optimizeQuality;shape-rendering:geometricPrecision;text-rendering:geometricPrecision"
       transform="matrix(1.3614273,0,0,1.3163892,136.75439,206.23068)"><path
         style="opacity:1"
         fill="#4f4f4f"
         d="m 105.5,47.5 c -0.251,1.6703 -0.918,3.1703 -2,4.5 -6.4135,0.2068 -12.7469,0.7068 -19,1.5 0.3925,-1.7838 1.0592,-3.4505 2,-5 6.3918,0.2513 12.7252,-0.082 19,-1 z"
         id="path667" /></g><g
       id="g673"
       style="clip-rule:evenodd;fill-rule:evenodd;stroke-linejoin:round;stroke-miterlimit:2;image-rendering:optimizeQuality;shape-rendering:geometricPrecision;text-rendering:geometricPrecision"
       transform="matrix(1.3614273,0,0,1.3163892,136.75439,206.23068)"><path
         style="opacity:1"
         fill="#555555"
         d="m 40.5,45.5 c 0.0838,2.8274 0.7504,5.494 2,8 -6.6344,-0.7051 -13.3011,-1.3718 -20,-2 -0.9408,-1.5495 -1.6075,-3.2162 -2,-5 6.7554,0.2934 13.4221,-0.0399 20,-1 z"
         id="path671" /></g><g
       id="g677"
       style="clip-rule:evenodd;fill-rule:evenodd;stroke-linejoin:round;stroke-miterlimit:2;image-rendering:optimizeQuality;shape-rendering:geometricPrecision;text-rendering:geometricPrecision"
       transform="matrix(1.3614273,0,0,1.3163892,136.75439,206.23068)"><path
         style="opacity:1"
         fill="#f5f5f5"
         d="m 73.5,48.5 c 0.5414,3.1516 -0.4586,5.6516 -3,7.5 -5,0.6667 -10,0.6667 -15,0 -0.8805,-0.7083 -1.5472,-1.5416 -2,-2.5 -0.338,-2.6569 0.3287,-4.9902 2,-7 4.967,-1.1623 9.967,-1.3289 15,-0.5 0.8734,1.045 1.8734,1.8783 3,2.5 z"
         id="path675" /></g><g
       id="g681"
       style="clip-rule:evenodd;fill-rule:evenodd;stroke-linejoin:round;stroke-miterlimit:2;image-rendering:optimizeQuality;shape-rendering:geometricPrecision;text-rendering:geometricPrecision"
       transform="matrix(1.3614273,0,0,1.3163892,136.75439,206.23068)"><path
         style="opacity:1"
         fill="#979797"
         d="m 16.5,32.5 c 0,0.6667 0,1.3333 0,2 -2.5129,3.8778 -3.8462,8.2112 -4,13 -2.68784,14.4825 0.1455,27.8158 8.5,40 0.7401,1.2494 0.5735,2.2494 -0.5,3 -2.8891,-2.7558 -5.0558,-6.0891 -6.5,-10 -1.2341,-4.2152 -2.7341,-8.2152 -4.5,-12 -0.64338,-10.8528 0.35662,-21.5195 3,-32 1.1444,-1.6002 2.3111,-3.2669 3.5,-5 0.3988,0.2284 0.5654,0.5618 0.5,1 z"
         id="path679" /></g><g
       id="g685"
       style="clip-rule:evenodd;fill-rule:evenodd;stroke-linejoin:round;stroke-miterlimit:2;image-rendering:optimizeQuality;shape-rendering:geometricPrecision;text-rendering:geometricPrecision"
       transform="matrix(1.3614273,0,0,1.3163892,136.75439,206.23068)"><path
         style="opacity:1"
         fill="#555555"
         d="m 115.5,45.5 c 2.18,11.9501 1.013,23.6167 -3.5,35 -0.852,1.0707 -1.685,2.0707 -2.5,3 0,-0.6667 0,-1.3333 0,-2 1.208,-3.4194 2.708,-6.7527 4.5,-10 1.145,-8.6299 1.645,-17.2966 1.5,-26 z"
         id="path683" /></g><g
       id="g689"
       style="clip-rule:evenodd;fill-rule:evenodd;stroke-linejoin:round;stroke-miterlimit:2;image-rendering:optimizeQuality;shape-rendering:geometricPrecision;text-rendering:geometricPrecision"
       transform="matrix(1.3614273,0,0,1.3163892,136.75439,206.23068)"><path
         style="opacity:1"
         fill="#565656"
         d="m 12.5,47.5 c -0.6887,10.6795 0.8113,21.0128 4.5,31 1.9764,1.3217 3.4764,2.9884 4.5,5 1.5457,3.4193 3.379,6.7526 5.5,10 2.843,2.511 5.343,5.3443 7.5,8.5 1.8325,0.748 3.4991,1.748 5,3 -0.5944,0.464 -1.2611,0.631 -2,0.5 -7.2069,-3.204 -12.8736,-8.2041 -17,-15 1.0735,-0.7506 1.2401,-1.7506 0.5,-3 C 12.6455,75.3158 9.81216,61.9825 12.5,47.5 Z"
         id="path687" /></g><g
       id="g693"
       style="clip-rule:evenodd;fill-rule:evenodd;stroke-linejoin:round;stroke-miterlimit:2;image-rendering:optimizeQuality;shape-rendering:geometricPrecision;text-rendering:geometricPrecision"
       transform="matrix(1.3614273,0,0,1.3163892,136.75439,206.23068)"><path
         style="opacity:1"
         fill="#393939"
         d="m 109.5,81.5 c 0,0.6667 0,1.3333 0,2 -3.942,4.7931 -7.775,9.7931 -11.5,15 -2.58,2.372 -5.4134,4.372 -8.5,6 0.1236,0.607 0.4569,0.94 1,1 -2.3911,1.862 -5.0578,3.196 -8,4 -0.7389,0.131 -1.4056,-0.036 -2,-0.5 5.5337,-3.459 5.2003,-5.626 -1,-6.5 -11.2988,-0.355 -22.6321,0.145 -34,1.5 -0.7135,1.343 -0.3802,2.676 1,4 -1.2932,0.49 -2.6266,0.657 -4,0.5 -2.174,-0.25 -3.8406,-1.25 -5,-3 0.7389,0.131 1.4056,-0.036 2,-0.5 -1.5009,-1.252 -3.1675,-2.252 -5,-3 -2.157,-3.1557 -4.657,-5.989 -7.5,-8.5 -2.121,-3.2474 -3.9543,-6.5807 -5.5,-10 0.9959,-0.0858 1.8292,0.2476 2.5,1 5.9789,-3.1506 11.9789,-6.1506 18,-9 1.1053,3.623 2.1053,7.2897 3,11 0.5,-0.5 1,-1 1.5,-1.5 6.1854,-0.6092 12.1854,-1.1092 18,-1.5 5.8663,0.2924 11.533,1.2924 17,3 1.6191,-3.1423 2.6191,-6.4756 3,-10 6.1551,1.995 11.9884,4.6616 17.5,8 1,-1.3333 2,-1.3333 3,0 1.129,-1.6412 2.629,-2.6412 4.5,-3 z"
         id="path691" /></g><g
       id="g697"
       style="clip-rule:evenodd;fill-rule:evenodd;stroke-linejoin:round;stroke-miterlimit:2;image-rendering:optimizeQuality;shape-rendering:geometricPrecision;text-rendering:geometricPrecision"
       transform="matrix(1.3614273,0,0,1.3163892,136.75439,206.23068)"><path
         style="opacity:1"
         fill="#292929"
         d="m 82.5,109.5 c -13.4418,5.47 -26.7752,5.137 -40,-1 1.3734,0.157 2.7068,-0.01 4,-0.5 -1.3802,-1.324 -1.7135,-2.657 -1,-4 11.3679,-1.355 22.7012,-1.855 34,-1.5 6.2003,0.874 6.5337,3.041 1,6.5 0.5944,0.464 1.2611,0.631 2,0.5 z"
         id="path695" /></g><g
       id="g701"
       style="clip-rule:evenodd;fill-rule:evenodd;stroke-linejoin:round;stroke-miterlimit:2;image-rendering:optimizeQuality;shape-rendering:geometricPrecision;text-rendering:geometricPrecision"
       transform="matrix(1.3614273,0,0,1.3163892,136.75439,206.23068)"><path
         style="opacity:1"
         fill="#676767"
         d="m 109.5,83.5 c -1.937,5.1229 -4.937,9.6229 -9,13.5 0.228,0.3988 0.562,0.5654 1,0.5 -3.1012,3.433 -6.7679,6.1 -11,8 -0.5431,-0.06 -0.8764,-0.393 -1,-1 3.0866,-1.628 5.92,-3.628 8.5,-6 3.725,-5.2069 7.558,-10.2069 11.5,-15 z"
         id="path699" /></g></g><text
     xml:space="preserve"
     id="text187"
     style="font-size:32px;white-space:pre;shape-inside:url(#rect189);display:inline;fill:#ffffff;filter:url(#filter265)"
     x="136.94028"
     y="0"
     transform="matrix(0.69606958,0,0,0.92334234,53.910548,-41.496963)"><tspan
       x="82.837891"
       y="121.81176"
       id="tspan663"><tspan
         style="text-align:center;text-anchor:middle"
         id="tspan661">Welland Pool League </tspan></tspan><tspan
       x="206.39258"
       y="161.81176"
       id="tspan667"><tspan
         style="text-align:center;text-anchor:middle"
         id="tspan665">Stats</tspan></tspan></text></g><text
   xml:space="preserve"
   id="text397"
   style="font-size:32px;text-align:center;white-space:pre;shape-inside:url(#rect399);display:inline;fill:#ffffff"><tspan
     x="103.51172"
     y="387.67504"
     id="tspan671"><tspan
       dx="0 31.640625 8.78125 8.78125 19.0625 18.9375 21.875 19.421875 11.25 12.609375 25.875 19.21875 13.65625 19.0625"
       style="fill:#008000"
       id="tspan669">WileySoftware.</tspan></tspan></text><text
   xml:space="preserve"
   id="text455"
   style="font-size:32px;text-align:center;white-space:pre;shape-inside:url(#rect457);display:inline;fill:#ffffff;filter:url(#filter521)"
   transform="matrix(0.31051631,0,0,0.33141253,153.8991,313.14161)"><tspan
     x="117.98926"
     y="299.96215"
     id="tspan673">WileySoftware.</tspan></text><g
   inkscape:groupmode="layer"
   id="layer2"
   inkscape:label="Layer 2" /></svg>
