<?xml version="1.0" encoding="UTF-8" standalone="no"?>
<svg
   width="177.45218"
   height="183.09369"
   viewBox="0 0 177.45218 183.09369"
   version="1.1"
   xml:space="preserve"
   style="clip-rule:evenodd;fill-rule:evenodd;stroke-linejoin:round;stroke-miterlimit:2"
   id="svg24"
   sodipodi:docname="splashscreen.svg"
   inkscape:version="1.2.2 (732a01da63, 2022-12-09)"
   inkscape:export-filename="splashscreen.png"
   inkscape:export-xdpi="96"
   inkscape:export-ydpi="96"
   xmlns:inkscape="http://www.inkscape.org/namespaces/inkscape"
   xmlns:sodipodi="http://sodipodi.sourceforge.net/DTD/sodipodi-0.dtd"
   xmlns="http://www.w3.org/2000/svg"
   xmlns:svg="http://www.w3.org/2000/svg"><defs
   id="defs28"><rect
     x="67.555557"
     y="270.76703"
     width="342.681"
     height="90.437279"
     id="rect457" /><rect
     x="103.51254"
     y="323.06812"
     width="226.09319"
     height="35.412186"
     id="rect399" /><rect
     x="78.451614"
     y="92.616486"
     width="338.86737"
     height="246.7957"
     id="rect189" /><filter
     style="color-interpolation-filters:sRGB"
     inkscape:label="Drop Shadow"
     id="filter265"
     x="-0.058419701"
     y="-0.2963106"
     width="1.1259675"
     height="1.6389197"><feFlood
       flood-opacity="0.596078"
       flood-color="rgb(0,0,0)"
       result="flood"
       id="feFlood255" /><feComposite
       in="flood"
       in2="SourceGraphic"
       operator="in"
       result="composite1"
       id="feComposite257" /><feGaussianBlur
       in="composite1"
       stdDeviation="3"
       result="blur"
       id="feGaussianBlur259" /><feOffset
       dx="1"
       dy="1"
       result="offset"
       id="feOffset261" /><feComposite
       in="SourceGraphic"
       in2="offset"
       operator="over"
       result="fbSourceGraphic"
       id="feComposite263" /><feColorMatrix
       result="fbSourceGraphicAlpha"
       in="fbSourceGraphic"
       values="0 0 0 -1 0 0 0 0 -1 0 0 0 0 -1 0 0 0 0 1 0"
       id="feColorMatrix267" /><feFlood
       id="feFlood269"
       flood-opacity="0.596078"
       flood-color="rgb(84,84,84)"
       result="flood"
       in="fbSourceGraphic" /><feComposite
       in2="fbSourceGraphic"
       id="feComposite271"
       in="flood"
       operator="in"
       result="composite1" /><feGaussianBlur
       id="feGaussianBlur273"
       in="composite1"
       stdDeviation="3"
       result="blur" /><feOffset
       id="feOffset275"
       dx="1"
       dy="1"
       result="offset" /><feComposite
       in2="offset"
       id="feComposite277"
       in="fbSourceGraphic"
       operator="over"
       result="fbSourceGraphic" /><feColorMatrix
       result="fbSourceGraphicAlpha"
       in="fbSourceGraphic"
       values="0 0 0 -1 0 0 0 0 -1 0 0 0 0 -1 0 0 0 0 1 0"
       id="feColorMatrix279" /><feFlood
       id="feFlood281"
       flood-opacity="0.596078"
       flood-color="rgb(84,84,84)"
       result="flood"
       in="fbSourceGraphic" /><feComposite
       in2="fbSourceGraphic"
       id="feComposite283"
       in="flood"
       operator="in"
       result="composite1" /><feGaussianBlur
       id="feGaussianBlur285"
       in="composite1"
       stdDeviation="2"
       result="blur" /><feOffset
       id="feOffset287"
       dx="1"
       dy="1"
       result="offset" /><feComposite
       in2="offset"
       id="feComposite289"
       in="fbSourceGraphic"
       operator="over"
       result="composite2" /></filter><filter
     style="color-interpolation-filters:sRGB"
     inkscape:label="Drop Shadow"
     id="filter521"
     x="-0.035529707"
     y="-0.2717897"
     width="1.0795189"
     height="1.6082911"><feFlood
       flood-opacity="0.596078"
       flood-color="rgb(84,84,84)"
       result="flood"
       id="feFlood511" /><feComposite
       in="flood"
       in2="SourceGraphic"
       operator="in"
       result="composite1"
       id="feComposite513" /><feGaussianBlur
       in="composite1"
       stdDeviation="2"
       result="blur"
       id="feGaussianBlur515" /><feOffset
       dx="1"
       dy="1"
       result="offset"
       id="feOffset517" /><feComposite
       in="SourceGraphic"
       in2="offset"
       operator="over"
       result="fbSourceGraphic"
       id="feComposite519" /><feColorMatrix
       result="fbSourceGraphicAlpha"
       in="fbSourceGraphic"
       values="0 0 0 -1 0 0 0 0 -1 0 0 0 0 -1 0 0 0 0 1 0"
       id="feColorMatrix523" /><feFlood
       id="feFlood525"
       flood-opacity="0.596078"
       flood-color="rgb(84,84,84)"
       result="flood"
       in="fbSourceGraphic" /><feComposite
       in2="fbSourceGraphic"
       id="feComposite527"
       in="flood"
       operator="in"
       result="composite1" /><feGaussianBlur
       id="feGaussianBlur529"
       in="composite1"
       stdDeviation="1.5"
       result="blur" /><feOffset
       id="feOffset531"
       dx="1"
       dy="1"
       result="offset" /><feComposite
       in2="offset"
       id="feComposite533"
       in="fbSourceGraphic"
       operator="over"
       result="composite2" /></filter><rect
     x="78.451614"
     y="92.616486"
     width="338.86737"
     height="246.7957"
     id="rect189-4" /><filter
     style="color-interpolation-filters:sRGB"
     inkscape:label="Drop Shadow"
     id="filter265-3"
     x="-0.067957081"
     y="-0.62091964"
     width="1.1465325"
     height="2.3388579"><feFlood
       flood-opacity="0.596078"
       flood-color="rgb(0,0,0)"
       result="flood"
       id="feFlood255-1" /><feComposite
       in="flood"
       in2="SourceGraphic"
       operator="in"
       result="composite1"
       id="feComposite257-1" /><feGaussianBlur
       in="composite1"
       stdDeviation="3"
       result="blur"
       id="feGaussianBlur259-7" /><feOffset
       dx="1"
       dy="1"
       result="offset"
       id="feOffset261-7" /><feComposite
       in="SourceGraphic"
       in2="offset"
       operator="over"
       result="fbSourceGraphic"
       id="feComposite263-0" /><feColorMatrix
       result="fbSourceGraphicAlpha"
       in="fbSourceGraphic"
       values="0 0 0 -1 0 0 0 0 -1 0 0 0 0 -1 0 0 0 0 1 0"
       id="feColorMatrix267-1" /><feFlood
       id="feFlood269-0"
       flood-opacity="0.596078"
       flood-color="rgb(84,84,84)"
       result="flood"
       in="fbSourceGraphic" /><feComposite
       in2="fbSourceGraphic"
       id="feComposite271-4"
       in="flood"
       operator="in"
       result="composite1" /><feGaussianBlur
       id="feGaussianBlur273-7"
       in="composite1"
       stdDeviation="3"
       result="blur" /><feOffset
       id="feOffset275-0"
       dx="1"
       dy="1"
       result="offset" /><feComposite
       in2="offset"
       id="feComposite277-1"
       in="fbSourceGraphic"
       operator="over"
       result="fbSourceGraphic" /><feColorMatrix
       result="fbSourceGraphicAlpha"
       in="fbSourceGraphic"
       values="0 0 0 -1 0 0 0 0 -1 0 0 0 0 -1 0 0 0 0 1 0"
       id="feColorMatrix279-8" /><feFlood
       id="feFlood281-0"
       flood-opacity="0.596078"
       flood-color="rgb(84,84,84)"
       result="flood"
       in="fbSourceGraphic" /><feComposite
       in2="fbSourceGraphic"
       id="feComposite283-4"
       in="flood"
       operator="in"
       result="composite1" /><feGaussianBlur
       id="feGaussianBlur285-1"
       in="composite1"
       stdDeviation="2"
       result="blur" /><feOffset
       id="feOffset287-5"
       dx="1"
       dy="1"
       result="offset" /><feComposite
       in2="offset"
       id="feComposite289-1"
       in="fbSourceGraphic"
       operator="over"
       result="composite2" /></filter><rect
     x="67.555557"
     y="270.76703"
     width="342.681"
     height="90.437279"
     id="rect457-3" /><filter
     style="color-interpolation-filters:sRGB"
     inkscape:label="Drop Shadow"
     id="filter521-2"
     x="-0.036976408"
     y="-0.2717897"
     width="1.0827568"
     height="1.6082911"><feFlood
       flood-opacity="0.596078"
       flood-color="rgb(84,84,84)"
       result="flood"
       id="feFlood511-7" /><feComposite
       in="flood"
       in2="SourceGraphic"
       operator="in"
       result="composite1"
       id="feComposite513-1" /><feGaussianBlur
       in="composite1"
       stdDeviation="2"
       result="blur"
       id="feGaussianBlur515-4" /><feOffset
       dx="1"
       dy="1"
       result="offset"
       id="feOffset517-9" /><feComposite
       in="SourceGraphic"
       in2="offset"
       operator="over"
       result="fbSourceGraphic"
       id="feComposite519-4" /><feColorMatrix
       result="fbSourceGraphicAlpha"
       in="fbSourceGraphic"
       values="0 0 0 -1 0 0 0 0 -1 0 0 0 0 -1 0 0 0 0 1 0"
       id="feColorMatrix523-1" /><feFlood
       id="feFlood525-8"
       flood-opacity="0.596078"
       flood-color="rgb(84,84,84)"
       result="flood"
       in="fbSourceGraphic" /><feComposite
       in2="fbSourceGraphic"
       id="feComposite527-6"
       in="flood"
       operator="in"
       result="composite1" /><feGaussianBlur
       id="feGaussianBlur529-9"
       in="composite1"
       stdDeviation="1.5"
       result="blur" /><feOffset
       id="feOffset531-1"
       dx="1"
       dy="1"
       result="offset" /><feComposite
       in2="offset"
       id="feComposite533-3"
       in="fbSourceGraphic"
       operator="over"
       result="composite2" /></filter><rect
     x="67.555557"
     y="270.76703"
     width="342.681"
     height="90.437279"
     id="rect457-3-2" /><filter
     style="color-interpolation-filters:sRGB"
     inkscape:label="Drop Shadow"
     id="filter521-2-6"
     x="-0.036976408"
     y="-0.27178969"
     width="1.0827567"
     height="1.6082912"><feFlood
       flood-opacity="0.596078"
       flood-color="rgb(84,84,84)"
       result="flood"
       id="feFlood511-7-0" /><feComposite
       in="flood"
       in2="SourceGraphic"
       operator="in"
       result="composite1"
       id="feComposite513-1-2" /><feGaussianBlur
       in="composite1"
       stdDeviation="2"
       result="blur"
       id="feGaussianBlur515-4-2" /><feOffset
       dx="1"
       dy="1"
       result="offset"
       id="feOffset517-9-8" /><feComposite
       in="SourceGraphic"
       in2="offset"
       operator="over"
       result="fbSourceGraphic"
       id="feComposite519-4-1" /><feColorMatrix
       result="fbSourceGraphicAlpha"
       in="fbSourceGraphic"
       values="0 0 0 -1 0 0 0 0 -1 0 0 0 0 -1 0 0 0 0 1 0"
       id="feColorMatrix523-1-1" /><feFlood
       id="feFlood525-8-4"
       flood-opacity="0.596078"
       flood-color="rgb(84,84,84)"
       result="flood"
       in="fbSourceGraphic" /><feComposite
       in2="fbSourceGraphic"
       id="feComposite527-6-1"
       in="flood"
       operator="in"
       result="composite1" /><feGaussianBlur
       id="feGaussianBlur529-9-4"
       in="composite1"
       stdDeviation="1.5"
       result="blur" /><feOffset
       id="feOffset531-1-0"
       dx="1"
       dy="1"
       result="offset" /><feComposite
       in2="offset"
       id="feComposite533-3-2"
       in="fbSourceGraphic"
       operator="over"
       result="composite2" /></filter></defs><sodipodi:namedview
   id="namedview26"
   pagecolor="#ffffff"
   bordercolor="#000000"
   borderopacity="0.25"
   inkscape:showpageshadow="2"
   inkscape:pageopacity="0.0"
   inkscape:pagecheckerboard="0"
   inkscape:deskcolor="#d1d1d1"
   showgrid="true"
   inkscape:zoom="1.8355263"
   inkscape:cx="-68.645162"
   inkscape:cy="95.340503"
   inkscape:window-width="1920"
   inkscape:window-height="1017"
   inkscape:window-x="-8"
   inkscape:window-y="-8"
   inkscape:window-maximized="1"
   inkscape:current-layer="layer1"><inkscape:grid
     type="xygrid"
     id="grid292"
     originx="-139.27391"
     originy="-136.45316" /></sodipodi:namedview>
    
    
    
    
<g
   inkscape:groupmode="layer"
   id="layer1"
   inkscape:label="Layer 1"
   transform="translate(-139.27391,-136.45316)"><g
     id="g1494"
     transform="translate(-13.34768,-10.078853)"
     inkscape:export-filename="splashscreen.png"
     inkscape:export-xdpi="96"
     inkscape:export-ydpi="96"><g
       id="g1032"
       style="clip-rule:evenodd;fill-rule:evenodd;stroke-linejoin:round;stroke-miterlimit:2"
       inkscape:export-filename="splashscreen.png"
       inkscape:export-xdpi="96"
       inkscape:export-ydpi="96"
       transform="translate(15.567063,20.022969)"><g
         id="g525"
         transform="translate(5.1756427,-61.835126)"
         inkscape:export-filename="splashscreen.png"
         inkscape:export-xdpi="96"
         inkscape:export-ydpi="96"
         style="clip-rule:evenodd;fill-rule:evenodd;stroke-linejoin:round;stroke-miterlimit:2"><g
           id="g537"
           style="clip-rule:evenodd;fill-rule:evenodd;stroke-linejoin:round;stroke-miterlimit:2;image-rendering:optimizeQuality;shape-rendering:geometricPrecision;text-rendering:geometricPrecision"
           transform="matrix(1.3614273,0,0,1.3163892,136.75439,206.23068)"><path
             style="opacity:1"
             fill="#888888"
             d="m 53.5,2.5 c 0.3333,0 0.6667,0 1,0 13.3408,-1.16298 26.0074,1.17036 38,7 0.4731,1.4063 1.4731,2.073 3,2 1.9044,0.2376 3.2377,1.2376 4,3 2.333,3 5,5.6667 8,8 0.237,1.291 -0.096,2.291 -1,3 -1.483,-1.5938 -2.983,-3.2605 -4.5,-5 -0.399,0.2284 -0.565,0.5618 -0.5,1 -0.667,-0.6667 -1.333,-1.3333 -2,-2 -0.6667,-1.3333 -1.6667,-2.3333 -3,-3 C 87.3167,8.38257 76.4833,4.71591 64,5.5 52.1093,4.7425 41.6093,8.07583 32.5,15.5 c -0.4175,-0.7216 -1.0842,-1.2216 -2,-1.5 2.52,-1.6971 4.8533,-3.5305 7,-5.5 1.0137,-1.17373 2.347,-1.8404 4,-2 4.4155,-0.3606 8.4155,-1.69393 12,-4 z"
             id="path535" /></g><g
           id="g541"
           style="clip-rule:evenodd;fill-rule:evenodd;stroke-linejoin:round;stroke-miterlimit:2;image-rendering:optimizeQuality;shape-rendering:geometricPrecision;text-rendering:geometricPrecision"
           transform="matrix(1.3614273,0,0,1.3163892,136.75439,206.23068)"><path
             style="opacity:1"
             fill="#434343"
             d="m 53.5,2.5 c -3.5845,2.30607 -7.5845,3.6394 -12,4 3.5845,-2.30607 7.5845,-3.6394 12,-4 z"
             id="path539" /></g><g
           id="g545"
           style="clip-rule:evenodd;fill-rule:evenodd;stroke-linejoin:round;stroke-miterlimit:2;image-rendering:optimizeQuality;shape-rendering:geometricPrecision;text-rendering:geometricPrecision"
           transform="matrix(1.3614273,0,0,1.3163892,136.75439,206.23068)"><path
             style="opacity:1"
             fill="#d2d2d2"
             d="M 96.5,16.5 C 78.3933,8.31739 59.7266,6.81739 40.5,12 c -1.9308,0.9022 -3.5975,2.0688 -5,3.5 -1.1522,1.125 -2.1522,1.125 -3,0 C 41.6093,8.07583 52.1093,4.7425 64,5.5 76.4833,4.71591 87.3167,8.38257 96.5,16.5 Z"
             id="path543" /></g><g
           id="g549"
           style="clip-rule:evenodd;fill-rule:evenodd;stroke-linejoin:round;stroke-miterlimit:2;image-rendering:optimizeQuality;shape-rendering:geometricPrecision;text-rendering:geometricPrecision"
           transform="matrix(1.3614273,0,0,1.3163892,136.75439,206.23068)"><path
             style="opacity:0.376"
             fill="#242424"
             d="m 54.5,2.5 c 11.1981,-2.049279 22.1981,-0.88261 33,3.5 2.0844,0.69724 3.7511,1.8639 5,3.5 -11.9926,-5.82964 -24.6592,-8.16298 -38,-7 z"
             id="path547" /></g><g
           id="g553"
           style="clip-rule:evenodd;fill-rule:evenodd;stroke-linejoin:round;stroke-miterlimit:2;image-rendering:optimizeQuality;shape-rendering:geometricPrecision;text-rendering:geometricPrecision"
           transform="matrix(1.3614273,0,0,1.3163892,136.75439,206.23068)"><path
             style="opacity:1"
             fill="#bebebe"
             d="m 96.5,16.5 c 1.3333,0.6667 2.3333,1.6667 3,3 0,0.6667 -0.3333,1 -1,1 -7.8501,-3.2248 -16.1834,-5.7248 -25,-7.5 -0.8279,-0.9147 -1.8279,-1.5814 -3,-2 -6,-0.6667 -12,-0.6667 -18,0 -5.4812,2.2162 -11.1479,3.7162 -17,4.5 1.4025,-1.4312 3.0692,-2.5978 5,-3.5 19.2266,-5.18261 37.8933,-3.68261 56,4.5 z"
             id="path551" /></g><g
           id="g557"
           style="clip-rule:evenodd;fill-rule:evenodd;stroke-linejoin:round;stroke-miterlimit:2;image-rendering:optimizeQuality;shape-rendering:geometricPrecision;text-rendering:geometricPrecision"
           transform="matrix(1.3614273,0,0,1.3163892,136.75439,206.23068)"><path
             style="opacity:0.137"
             fill="#282828"
             d="m 92.5,9.5 c 1.5269,-0.07298 2.5269,0.5937 3,2 -1.5269,0.073 -2.5269,-0.5937 -3,-2 z"
             id="path555" /></g><g
           id="g561"
           style="clip-rule:evenodd;fill-rule:evenodd;stroke-linejoin:round;stroke-miterlimit:2;image-rendering:optimizeQuality;shape-rendering:geometricPrecision;text-rendering:geometricPrecision"
           transform="matrix(1.3614273,0,0,1.3163892,136.75439,206.23068)"><path
             style="opacity:1"
             fill="#434343"
             d="m 37.5,8.5 c -2.1467,1.9695 -4.48,3.8029 -7,5.5 0.9158,0.2784 1.5825,0.7784 2,1.5 -1.2281,0.8065 -2.2281,1.8065 -3,3 0,-0.6667 -0.3333,-1 -1,-1 -0.3417,-0.8382 -1.0084,-1.1716 -2,-1 2.7724,-3.8871 6.4391,-6.55381 11,-8 z"
             id="path559" /></g><g
           id="g565"
           style="clip-rule:evenodd;fill-rule:evenodd;stroke-linejoin:round;stroke-miterlimit:2;image-rendering:optimizeQuality;shape-rendering:geometricPrecision;text-rendering:geometricPrecision"
           transform="matrix(1.3614273,0,0,1.3163892,136.75439,206.23068)"><path
             style="opacity:1"
             fill="#929292"
             d="m 98.5,20.5 c 0.6667,0 1,-0.3333 1,-1 0.667,0.6667 1.333,1.3333 2,2 0,2.6667 0,5.3333 0,8 -5.9421,-3.3149 -12.2754,-5.6483 -19,-7 -1.4348,1.4469 -2.4348,3.1136 -3,5 -10.6953,-7.9527 -21.362,-7.9527 -32,0 -0.5652,-1.8864 -1.5652,-3.5531 -3,-5 -5.6901,2.0074 -11.3568,4.0074 -17,6 -0.3064,-2.8854 0.0269,-5.5521 1,-8 -0.131,0.7389 0.0357,1.4056 0.5,2 9.3141,-5.2152 19.3141,-8.2152 30,-9 13.4868,1.1714 26.6534,3.5047 39.5,7 z"
             id="path563" /></g><g
           id="g569"
           style="clip-rule:evenodd;fill-rule:evenodd;stroke-linejoin:round;stroke-miterlimit:2;image-rendering:optimizeQuality;shape-rendering:geometricPrecision;text-rendering:geometricPrecision"
           transform="matrix(1.3614273,0,0,1.3163892,136.75439,206.23068)"><path
             style="opacity:1"
             fill="#a8a8a8"
             d="M 98.5,20.5 C 85.6534,17.0047 72.4868,14.6714 59,13.5 c -10.6859,0.7848 -20.6859,3.7848 -30,9 -0.4643,-0.5944 -0.631,-1.2611 -0.5,-2 0.3333,-0.6667 0.6667,-1.3333 1,-2 0.7719,-1.1935 1.7719,-2.1935 3,-3 0.8478,1.125 1.8478,1.125 3,0 5.8521,-0.7838 11.5188,-2.2838 17,-4.5 6,-0.6667 12,-0.6667 18,0 1.1721,0.4186 2.1721,1.0853 3,2 8.8166,1.7752 17.1499,4.2752 25,7.5 z"
             id="path567" /></g><g
           id="g573"
           style="clip-rule:evenodd;fill-rule:evenodd;stroke-linejoin:round;stroke-miterlimit:2;image-rendering:optimizeQuality;shape-rendering:geometricPrecision;text-rendering:geometricPrecision"
           transform="matrix(1.3614273,0,0,1.3163892,136.75439,206.23068)"><path
             style="opacity:0.071"
             fill="#222222"
             d="m 99.5,14.5 c 3.667,1.6667 6.333,4.3333 8,8 -3,-2.3333 -5.667,-5 -8,-8 z"
             id="path571" /></g><g
           id="g577"
           style="clip-rule:evenodd;fill-rule:evenodd;stroke-linejoin:round;stroke-miterlimit:2;image-rendering:optimizeQuality;shape-rendering:geometricPrecision;text-rendering:geometricPrecision"
           transform="matrix(1.3614273,0,0,1.3163892,136.75439,206.23068)"><path
             style="opacity:0.639"
             fill="#181819"
             d="m 26.5,16.5 c -1,1.6667 -2.3333,3 -4,4 0.3333,-2.3333 1.6667,-3.6667 4,-4 z"
             id="path575" /></g><g
           id="g581"
           style="clip-rule:evenodd;fill-rule:evenodd;stroke-linejoin:round;stroke-miterlimit:2;image-rendering:optimizeQuality;shape-rendering:geometricPrecision;text-rendering:geometricPrecision"
           transform="matrix(1.3614273,0,0,1.3163892,136.75439,206.23068)"><path
             style="opacity:1"
             fill="#757575"
             d="m 26.5,16.5 c 0.9916,-0.1716 1.6583,0.1618 2,1 -2.6667,3 -5.3333,6 -8,9 -0.5431,-0.06 -0.8764,-0.3933 -1,-1 1.4524,-1.4397 2.4524,-3.1064 3,-5 1.6667,-1 3,-2.3333 4,-4 z"
             id="path579" /></g><g
           id="g585"
           style="clip-rule:evenodd;fill-rule:evenodd;stroke-linejoin:round;stroke-miterlimit:2;image-rendering:optimizeQuality;shape-rendering:geometricPrecision;text-rendering:geometricPrecision"
           transform="matrix(1.3614273,0,0,1.3163892,136.75439,206.23068)"><path
             style="opacity:1"
             fill="#3f3f40"
             d="m 22.5,20.5 c -0.5476,1.8936 -1.5476,3.5603 -3,5 0.1236,0.6067 0.4569,0.94 1,1 -0.5568,2.5499 -1.8901,4.5499 -4,6 0.0654,-0.4382 -0.1012,-0.7716 -0.5,-1 -1.1889,1.7331 -2.3556,3.3998 -3.5,5 1.8176,-6.3063 5.1509,-11.6397 10,-16 z"
             id="path583" /></g><g
           id="g589"
           style="clip-rule:evenodd;fill-rule:evenodd;stroke-linejoin:round;stroke-miterlimit:2;image-rendering:optimizeQuality;shape-rendering:geometricPrecision;text-rendering:geometricPrecision"
           transform="matrix(1.3614273,0,0,1.3163892,136.75439,206.23068)"><path
             style="opacity:1"
             fill="#515151"
             d="m 107.5,22.5 c 4.535,4.3963 7.535,9.7296 9,16 -1.395,-1.5544 -2.061,-1.221 -2,1 0.656,1.9534 0.989,3.9534 1,6 -0.333,0 -0.667,0 -1,0 -0.639,-4.0272 -1.472,-8.0272 -2.5,-12 -1,-0.6667 -2,-1.3333 -3,-2 -0.585,-2.1614 -1.418,-4.1614 -2.5,-6 0.904,-0.709 1.237,-1.709 1,-3 z"
             id="path587" /></g><g
           id="g593"
           style="clip-rule:evenodd;fill-rule:evenodd;stroke-linejoin:round;stroke-miterlimit:2;image-rendering:optimizeQuality;shape-rendering:geometricPrecision;text-rendering:geometricPrecision"
           transform="matrix(1.3614273,0,0,1.3163892,136.75439,206.23068)"><path
             style="opacity:1"
             fill="#929292"
             d="m 116.5,38.5 c 1.522,6.071 2.522,12.2377 3,18.5 -0.223,4.1839 -0.557,8.3505 -1,12.5 -2.234,6.4795 -5.068,12.8128 -8.5,19 -2.334,3.5 -5.168,6.5 -8.5,9 -0.438,0.0654 -0.772,-0.1012 -1,-0.5 4.063,-3.8771 7.063,-8.3771 9,-13.5 0.815,-0.9293 1.648,-1.9293 2.5,-3 4.513,-11.3833 5.68,-23.0499 3.5,-35 -0.011,-2.0466 -0.344,-4.0466 -1,-6 -0.061,-2.221 0.605,-2.5544 2,-1 z"
             id="path591" /></g><g
           id="g597"
           style="clip-rule:evenodd;fill-rule:evenodd;stroke-linejoin:round;stroke-miterlimit:2;image-rendering:optimizeQuality;shape-rendering:geometricPrecision;text-rendering:geometricPrecision"
           transform="matrix(1.3614273,0,0,1.3163892,136.75439,206.23068)"><path
             style="opacity:0.929"
             fill="#424242"
             d="M 12.5,36.5 C 9.85662,46.9805 8.85662,57.6472 9.5,68.5 8.34434,61.0113 8.17767,53.3446 9,45.5 c 0.50531,-3.365 1.672,-6.365 3.5,-9 z"
             id="path595" /></g><g
           id="g601"
           style="clip-rule:evenodd;fill-rule:evenodd;stroke-linejoin:round;stroke-miterlimit:2;image-rendering:optimizeQuality;shape-rendering:geometricPrecision;text-rendering:geometricPrecision"
           transform="matrix(1.3614273,0,0,1.3163892,136.75439,206.23068)"><path
             style="opacity:0.47"
             fill="#2e2e2e"
             d="m 116.5,38.5 c 1.433,2.7823 2.6,5.7823 3.5,9 0.667,6.3333 0.667,12.6667 0,19 -0.232,1.2375 -0.732,2.2375 -1.5,3 0.443,-4.1495 0.777,-8.3161 1,-12.5 -0.478,-6.2623 -1.478,-12.429 -3,-18.5 z"
             id="path599" /></g><g
           id="g605"
           style="clip-rule:evenodd;fill-rule:evenodd;stroke-linejoin:round;stroke-miterlimit:2;image-rendering:optimizeQuality;shape-rendering:geometricPrecision;text-rendering:geometricPrecision"
           transform="matrix(1.3614273,0,0,1.3163892,136.75439,206.23068)"><path
             style="opacity:1"
             fill="#0c0c0c"
             d="m 28.5,17.5 c 0.6667,0 1,0.3333 1,1 -0.3333,0.6667 -0.6667,1.3333 -1,2 -0.9731,2.4479 -1.3064,5.1146 -1,8 -0.7905,0.9013 -1.7905,1.5679 -3,2 -1.3717,1.0116 -2.705,2.0116 -4,3 -1.2359,4.2012 -1.2359,8.5345 0,13 0.3925,1.7838 1.0592,3.4505 2,5 3.2825,7.2202 8.9491,10.2202 17,9 2.4212,-0.06 4.7545,-0.3934 7,-1 11.2292,10.5222 22.5625,10.5222 34,0 6.312,1.2995 12.6453,1.1328 19,-0.5 4.061,-3.2907 6.727,-7.4574 8,-12.5 1.071,-4.4891 1.071,-8.8224 0,-13 0,-0.6667 -0.333,-1 -1,-1 -1.399,-1.3897 -3.066,-2.3897 -5,-3 0,-2.6667 0,-5.3333 0,-8 -0.065,-0.4382 0.101,-0.7716 0.5,-1 1.517,1.7395 3.017,3.4062 4.5,5 1.082,1.8386 1.915,3.8386 2.5,6 1,0.6667 2,1.3333 3,2 1.028,3.9728 1.861,7.9728 2.5,12 0.166,4.3461 -0.001,8.6794 -0.5,13 -0.574,2.8192 -1.907,5.1525 -4,7 -3,-1 -6,-2 -9,-3 C 93.269,68.1151 84.769,72.2817 75.5,75 57.2061,78.6163 41.2061,74.2829 27.5,62 24.4016,61.7287 21.5683,62.5621 19,64.5 15.103,61.2607 13.603,57.0941 14.5,52 c 0.287,-5.8857 0.9536,-11.7191 2,-17.5 0,-0.6667 0,-1.3333 0,-2 2.1099,-1.4501 3.4432,-3.4501 4,-6 2.6667,-3 5.3333,-6 8,-9 z"
             id="path603" /></g><g
           id="g609"
           style="clip-rule:evenodd;fill-rule:evenodd;stroke-linejoin:round;stroke-miterlimit:2;image-rendering:optimizeQuality;shape-rendering:geometricPrecision;text-rendering:geometricPrecision"
           transform="matrix(1.3614273,0,0,1.3163892,136.75439,206.23068)"><path
             style="opacity:1"
             fill="#686868"
             d="m 107.5,33.5 c 1.071,4.1776 1.071,8.5109 0,13 -0.667,0.3333 -1.333,0.6667 -2,1 -6.2748,0.918 -12.6082,1.2513 -19,1 0,-2.6667 0,-5.3333 0,-8 6.5859,1.1258 13.2526,1.2925 20,0.5 0.935,-2.3806 1.268,-4.8806 1,-7.5 z"
             id="path607" /></g><g
           id="g613"
           style="clip-rule:evenodd;fill-rule:evenodd;stroke-linejoin:round;stroke-miterlimit:2;image-rendering:optimizeQuality;shape-rendering:geometricPrecision;text-rendering:geometricPrecision"
           transform="matrix(1.3614273,0,0,1.3163892,136.75439,206.23068)"><path
             style="opacity:1"
             fill="#747474"
             d="m 20.5,33.5 c 0,1.6667 0,3.3333 0,5 6.6667,0 13.3333,0 20,0 0,2.3333 0,4.6667 0,7 -6.5779,0.9601 -13.2446,1.2934 -20,1 -1.2359,-4.4655 -1.2359,-8.7988 0,-13 z"
             id="path611" /></g><g
           id="g617"
           style="clip-rule:evenodd;fill-rule:evenodd;stroke-linejoin:round;stroke-miterlimit:2;image-rendering:optimizeQuality;shape-rendering:geometricPrecision;text-rendering:geometricPrecision"
           transform="matrix(1.3614273,0,0,1.3163892,136.75439,206.23068)"><path
             style="opacity:1"
             fill="#939393"
             d="m 106.5,32.5 c 0.667,0 1,0.3333 1,1 0.268,2.6194 -0.065,5.1194 -1,7.5 -6.7474,0.7925 -13.4141,0.6258 -20,-0.5 -0.538,-1.6172 -0.8713,-3.2839 -1,-5 6.675,0.1663 13.3417,-4e-4 20,-0.5 0.752,-0.6708 1.086,-1.5041 1,-2.5 z"
             id="path615" /></g><g
           id="g621"
           style="clip-rule:evenodd;fill-rule:evenodd;stroke-linejoin:round;stroke-miterlimit:2;image-rendering:optimizeQuality;shape-rendering:geometricPrecision;text-rendering:geometricPrecision"
           transform="matrix(1.3614273,0,0,1.3163892,136.75439,206.23068)"><path
             style="opacity:1"
             fill="#9d9d9d"
             d="m 24.5,30.5 c 2.5866,1.3164 5.5866,1.983 9,2 3.6382,-0.405 6.9715,-0.405 10,0 -1.0139,2.0739 -2.0139,4.0739 -3,6 -6.6667,0 -13.3333,0 -20,0 0,-1.6667 0,-3.3333 0,-5 1.295,-0.9884 2.6283,-1.9884 4,-3 z"
             id="path619" /></g><g
           id="g625"
           style="clip-rule:evenodd;fill-rule:evenodd;stroke-linejoin:round;stroke-miterlimit:2;image-rendering:optimizeQuality;shape-rendering:geometricPrecision;text-rendering:geometricPrecision"
           transform="matrix(1.3614273,0,0,1.3163892,136.75439,206.23068)"><path
             style="opacity:1"
             fill="#b4b4b4"
             d="m 101.5,29.5 c 1.934,0.6103 3.601,1.6103 5,3 0.086,0.9959 -0.248,1.8292 -1,2.5 -6.6583,0.4996 -13.325,0.6663 -20,0.5 -1.9884,-2.6283 -3.9884,-5.295 -6,-8 0.5652,-1.8864 1.5652,-3.5531 3,-5 6.7246,1.3517 13.0579,3.6851 19,7 z"
             id="path623" /></g><g
           id="g629"
           style="clip-rule:evenodd;fill-rule:evenodd;stroke-linejoin:round;stroke-miterlimit:2;image-rendering:optimizeQuality;shape-rendering:geometricPrecision;text-rendering:geometricPrecision"
           transform="matrix(1.3614273,0,0,1.3163892,136.75439,206.23068)"><path
             style="opacity:1"
             fill="#bdbdbd"
             d="m 47.5,27.5 c -1.3637,1.6911 -2.697,3.3577 -4,5 -3.0285,-0.405 -6.3618,-0.405 -10,0 -3.4134,-0.017 -6.4134,-0.6836 -9,-2 1.2095,-0.4321 2.2095,-1.0987 3,-2 5.6432,-1.9926 11.3099,-3.9926 17,-6 1.4348,1.4469 2.4348,3.1136 3,5 z"
             id="path627" /></g><g
           id="g633"
           style="clip-rule:evenodd;fill-rule:evenodd;stroke-linejoin:round;stroke-miterlimit:2;image-rendering:optimizeQuality;shape-rendering:geometricPrecision;text-rendering:geometricPrecision"
           transform="matrix(1.3614273,0,0,1.3163892,136.75439,206.23068)"><path
             style="opacity:1"
             fill="#f7f7f7"
             d="m 79.5,27.5 c 2.0116,2.705 4.0116,5.3717 6,8 0.1287,1.7161 0.462,3.3828 1,5 0,2.6667 0,5.3333 0,8 -0.9408,1.5495 -1.6075,3.2162 -2,5 -0.9411,2.2721 -2.2745,4.2721 -4,6 -11.4375,10.5222 -22.7708,10.5222 -34,0 -1.7255,-1.7279 -3.0589,-3.7279 -4,-6 -1.2496,-2.506 -1.9162,-5.1726 -2,-8 0,-2.3333 0,-4.6667 0,-7 0.9861,-1.9261 1.9861,-3.9261 3,-6 1.303,-1.6423 2.6363,-3.3089 4,-5 10.638,-7.9527 21.3047,-7.9527 32,0 z"
             id="path631" /></g><g
           id="g637"
           style="clip-rule:evenodd;fill-rule:evenodd;stroke-linejoin:round;stroke-miterlimit:2;image-rendering:optimizeQuality;shape-rendering:geometricPrecision;text-rendering:geometricPrecision"
           transform="matrix(1.3614273,0,0,1.3163892,136.75439,206.23068)"><path
             style="opacity:1"
             fill="#565656"
             d="m 73.5,43.5 c 3.9113,3.341 4.9113,7.341 3,12 0.1621,-2.0273 -0.0045,-4.0273 -0.5,-6 -0.6708,-0.7524 -1.5041,-1.0858 -2.5,-1 -1.1266,-0.6217 -2.1266,-1.455 -3,-2.5 -5.033,-0.8289 -10.033,-0.6623 -15,0.5 -1.6713,2.0098 -2.338,4.3431 -2,7 -0.79,-1.1085 -1.29,-2.4419 -1.5,-4 -0.7083,0.8805 -1.5416,1.5472 -2.5,2 -0.4844,-3.2882 0.5156,-5.9548 3,-8 7,-1.3333 14,-1.3333 21,0 z"
             id="path635" /></g><g
           id="g641"
           style="clip-rule:evenodd;fill-rule:evenodd;stroke-linejoin:round;stroke-miterlimit:2;image-rendering:optimizeQuality;shape-rendering:geometricPrecision;text-rendering:geometricPrecision"
           transform="matrix(1.3614273,0,0,1.3163892,136.75439,206.23068)"><path
             style="opacity:1"
             fill="#7b7b7b"
             d="m 73.5,43.5 c -7,-1.3333 -14,-1.3333 -21,0 -0.9584,-0.4528 -1.7917,-1.1195 -2.5,-2 -1.5823,-10.086 2.7511,-14.7527 13,-14 10.2449,-1.4173 14.9116,2.916 14,13 -1.0391,1.2101 -2.2058,2.2101 -3.5,3 z"
             id="path639" /></g><g
           id="g645"
           style="clip-rule:evenodd;fill-rule:evenodd;stroke-linejoin:round;stroke-miterlimit:2;image-rendering:optimizeQuality;shape-rendering:geometricPrecision;text-rendering:geometricPrecision"
           transform="matrix(1.3614273,0,0,1.3163892,136.75439,206.23068)"><path
             style="opacity:1"
             fill="#fcfcfc"
             d="m 55.5,31.5 c 5.0111,-0.1659 10.0111,7e-4 15,0.5 3.4779,2.7065 3.8112,5.7065 1,9 -5.3333,0.6667 -10.6667,0.6667 -16,0 -2.6119,-3.1641 -2.6119,-6.3307 0,-9.5 z"
             id="path643" /></g><g
           id="g649"
           style="clip-rule:evenodd;fill-rule:evenodd;stroke-linejoin:round;stroke-miterlimit:2;image-rendering:optimizeQuality;shape-rendering:geometricPrecision;text-rendering:geometricPrecision"
           transform="matrix(1.3614273,0,0,1.3163892,136.75439,206.23068)"><path
             style="opacity:0.281"
             fill="#020202"
             d="m 9.5,68.5 c 1.7659,3.7848 3.2659,7.7848 4.5,12 1.4442,3.9109 3.6109,7.2442 6.5,10 4.1264,6.7959 9.7931,11.796 17,15 1.1594,1.75 2.826,2.75 5,3 13.2248,6.137 26.5582,6.47 40,1 2.9422,-0.804 5.6089,-2.138 8,-4 4.2321,-1.9 7.8988,-4.567 11,-8 3.332,-2.5 6.166,-5.5 8.5,-9 3.432,-6.1872 6.266,-12.5205 8.5,-19 5.725,29.8075 -6.275,48.308 -36,55.5 -12.6667,0.667 -25.3333,0.667 -38,0 C 24.6967,120.547 11.8634,108.714 6,89.5 5.65364,82.2448 6.8203,75.2448 9.5,68.5 Z"
             id="path647" /></g><g
           id="g653"
           style="clip-rule:evenodd;fill-rule:evenodd;stroke-linejoin:round;stroke-miterlimit:2;image-rendering:optimizeQuality;shape-rendering:geometricPrecision;text-rendering:geometricPrecision"
           transform="matrix(1.3614273,0,0,1.3163892,136.75439,206.23068)"><path
             style="opacity:1"
             fill="#2a2a2a"
             d="m 16.5,34.5 c -1.0464,5.7809 -1.713,11.6143 -2,17.5 -0.897,5.0941 0.603,9.2607 4.5,12.5 2.5683,-1.9379 5.4016,-2.7713 8.5,-2.5 13.7061,12.2829 29.7061,16.6163 48,13 9.269,-2.7183 17.769,-6.8849 25.5,-12.5 3,1 6,2 9,3 2.093,-1.8475 3.426,-4.1808 4,-7 0.499,-4.3206 0.666,-8.6539 0.5,-13 0.333,0 0.667,0 1,0 0.145,8.7034 -0.355,17.3701 -1.5,26 -1.792,3.2473 -3.292,6.5806 -4.5,10 -1.871,0.3588 -3.371,1.3588 -4.5,3 -1,-1.3333 -2,-1.3333 -3,0 -5.5116,-3.3384 -11.3449,-6.005 -17.5,-8 -0.3809,3.5244 -1.3809,6.8577 -3,10 -5.467,-1.7076 -11.1337,-2.7076 -17,-3 -5.8146,0.3908 -11.8146,0.8908 -18,1.5 -0.5,0.5 -1,1 -1.5,1.5 -0.8947,-3.7103 -1.8947,-7.377 -3,-11 -6.0211,2.8494 -12.0211,5.8494 -18,9 -0.6708,-0.7524 -1.5041,-1.0858 -2.5,-1 -1.0236,-2.0116 -2.5236,-3.6783 -4.5,-5 -3.6887,-9.9872 -5.1887,-20.3205 -4.5,-31 0.1538,-4.7888 1.4871,-9.1222 4,-13 z"
             id="path651" /></g><g
           id="g657"
           style="clip-rule:evenodd;fill-rule:evenodd;stroke-linejoin:round;stroke-miterlimit:2;image-rendering:optimizeQuality;shape-rendering:geometricPrecision;text-rendering:geometricPrecision"
           transform="matrix(1.3614273,0,0,1.3163892,136.75439,206.23068)"><path
             style="opacity:1"
             fill="#2d2d2d"
             d="m 107.5,46.5 c -1.273,5.0426 -3.939,9.2093 -8,12.5 -6.3547,1.6328 -12.688,1.7995 -19,0.5 1.7255,-1.7279 3.0589,-3.7279 4,-6 6.2531,-0.7932 12.5865,-1.2932 19,-1.5 1.082,-1.3297 1.749,-2.8297 2,-4.5 0.667,-0.3333 1.333,-0.6667 2,-1 z"
             id="path655" /></g><g
           id="g661"
           style="clip-rule:evenodd;fill-rule:evenodd;stroke-linejoin:round;stroke-miterlimit:2;image-rendering:optimizeQuality;shape-rendering:geometricPrecision;text-rendering:geometricPrecision"
           transform="matrix(1.3614273,0,0,1.3163892,136.75439,206.23068)"><path
             style="opacity:1"
             fill="#2d2d2d"
             d="m 22.5,51.5 c 6.6989,0.6282 13.3656,1.2949 20,2 0.9411,2.2721 2.2745,4.2721 4,6 -2.2455,0.6066 -4.5788,0.94 -7,1 -8.0509,1.2202 -13.7175,-1.7798 -17,-9 z"
             id="path659" /></g><g
           id="g665"
           style="clip-rule:evenodd;fill-rule:evenodd;stroke-linejoin:round;stroke-miterlimit:2;image-rendering:optimizeQuality;shape-rendering:geometricPrecision;text-rendering:geometricPrecision"
           transform="matrix(1.3614273,0,0,1.3163892,136.75439,206.23068)"><path
             style="opacity:1"
             fill="#272727"
             d="m 73.5,48.5 c 0.9959,-0.0858 1.8292,0.2476 2.5,1 0.4955,1.9727 0.6621,3.9727 0.5,6 -1.1253,1.6288 -2.4586,3.1288 -4,4.5 -6,0.6667 -12,0.6667 -18,0 -3.2118,-2.0194 -4.8784,-4.8527 -5,-8.5 0.9584,-0.4528 1.7917,-1.1195 2.5,-2 0.21,1.5581 0.71,2.8915 1.5,4 0.4528,0.9584 1.1195,1.7917 2,2.5 5,0.6667 10,0.6667 15,0 2.5414,-1.8484 3.5414,-4.3484 3,-7.5 z"
             id="path663" /></g><g
           id="g669"
           style="clip-rule:evenodd;fill-rule:evenodd;stroke-linejoin:round;stroke-miterlimit:2;image-rendering:optimizeQuality;shape-rendering:geometricPrecision;text-rendering:geometricPrecision"
           transform="matrix(1.3614273,0,0,1.3163892,136.75439,206.23068)"><path
             style="opacity:1"
             fill="#4f4f4f"
             d="m 105.5,47.5 c -0.251,1.6703 -0.918,3.1703 -2,4.5 -6.4135,0.2068 -12.7469,0.7068 -19,1.5 0.3925,-1.7838 1.0592,-3.4505 2,-5 6.3918,0.2513 12.7252,-0.082 19,-1 z"
             id="path667" /></g><g
           id="g673"
           style="clip-rule:evenodd;fill-rule:evenodd;stroke-linejoin:round;stroke-miterlimit:2;image-rendering:optimizeQuality;shape-rendering:geometricPrecision;text-rendering:geometricPrecision"
           transform="matrix(1.3614273,0,0,1.3163892,136.75439,206.23068)"><path
             style="opacity:1"
             fill="#555555"
             d="m 40.5,45.5 c 0.0838,2.8274 0.7504,5.494 2,8 -6.6344,-0.7051 -13.3011,-1.3718 -20,-2 -0.9408,-1.5495 -1.6075,-3.2162 -2,-5 6.7554,0.2934 13.4221,-0.0399 20,-1 z"
             id="path671" /></g><g
           id="g677"
           style="clip-rule:evenodd;fill-rule:evenodd;stroke-linejoin:round;stroke-miterlimit:2;image-rendering:optimizeQuality;shape-rendering:geometricPrecision;text-rendering:geometricPrecision"
           transform="matrix(1.3614273,0,0,1.3163892,136.75439,206.23068)"><path
             style="opacity:1"
             fill="#f5f5f5"
             d="m 73.5,48.5 c 0.5414,3.1516 -0.4586,5.6516 -3,7.5 -5,0.6667 -10,0.6667 -15,0 -0.8805,-0.7083 -1.5472,-1.5416 -2,-2.5 -0.338,-2.6569 0.3287,-4.9902 2,-7 4.967,-1.1623 9.967,-1.3289 15,-0.5 0.8734,1.045 1.8734,1.8783 3,2.5 z"
             id="path675" /></g><g
           id="g681"
           style="clip-rule:evenodd;fill-rule:evenodd;stroke-linejoin:round;stroke-miterlimit:2;image-rendering:optimizeQuality;shape-rendering:geometricPrecision;text-rendering:geometricPrecision"
           transform="matrix(1.3614273,0,0,1.3163892,136.75439,206.23068)"><path
             style="opacity:1"
             fill="#979797"
             d="m 16.5,32.5 c 0,0.6667 0,1.3333 0,2 -2.5129,3.8778 -3.8462,8.2112 -4,13 -2.68784,14.4825 0.1455,27.8158 8.5,40 0.7401,1.2494 0.5735,2.2494 -0.5,3 -2.8891,-2.7558 -5.0558,-6.0891 -6.5,-10 -1.2341,-4.2152 -2.7341,-8.2152 -4.5,-12 -0.64338,-10.8528 0.35662,-21.5195 3,-32 1.1444,-1.6002 2.3111,-3.2669 3.5,-5 0.3988,0.2284 0.5654,0.5618 0.5,1 z"
             id="path679" /></g><g
           id="g685"
           style="clip-rule:evenodd;fill-rule:evenodd;stroke-linejoin:round;stroke-miterlimit:2;image-rendering:optimizeQuality;shape-rendering:geometricPrecision;text-rendering:geometricPrecision"
           transform="matrix(1.3614273,0,0,1.3163892,136.75439,206.23068)"><path
             style="opacity:1"
             fill="#555555"
             d="m 115.5,45.5 c 2.18,11.9501 1.013,23.6167 -3.5,35 -0.852,1.0707 -1.685,2.0707 -2.5,3 0,-0.6667 0,-1.3333 0,-2 1.208,-3.4194 2.708,-6.7527 4.5,-10 1.145,-8.6299 1.645,-17.2966 1.5,-26 z"
             id="path683" /></g><g
           id="g689"
           style="clip-rule:evenodd;fill-rule:evenodd;stroke-linejoin:round;stroke-miterlimit:2;image-rendering:optimizeQuality;shape-rendering:geometricPrecision;text-rendering:geometricPrecision"
           transform="matrix(1.3614273,0,0,1.3163892,136.75439,206.23068)"><path
             style="opacity:1"
             fill="#565656"
             d="m 12.5,47.5 c -0.6887,10.6795 0.8113,21.0128 4.5,31 1.9764,1.3217 3.4764,2.9884 4.5,5 1.5457,3.4193 3.379,6.7526 5.5,10 2.843,2.511 5.343,5.3443 7.5,8.5 1.8325,0.748 3.4991,1.748 5,3 -0.5944,0.464 -1.2611,0.631 -2,0.5 -7.2069,-3.204 -12.8736,-8.2041 -17,-15 1.0735,-0.7506 1.2401,-1.7506 0.5,-3 C 12.6455,75.3158 9.81216,61.9825 12.5,47.5 Z"
             id="path687" /></g><g
           id="g693"
           style="clip-rule:evenodd;fill-rule:evenodd;stroke-linejoin:round;stroke-miterlimit:2;image-rendering:optimizeQuality;shape-rendering:geometricPrecision;text-rendering:geometricPrecision"
           transform="matrix(1.3614273,0,0,1.3163892,136.75439,206.23068)"><path
             style="opacity:1"
             fill="#393939"
             d="m 109.5,81.5 c 0,0.6667 0,1.3333 0,2 -3.942,4.7931 -7.775,9.7931 -11.5,15 -2.58,2.372 -5.4134,4.372 -8.5,6 0.1236,0.607 0.4569,0.94 1,1 -2.3911,1.862 -5.0578,3.196 -8,4 -0.7389,0.131 -1.4056,-0.036 -2,-0.5 5.5337,-3.459 5.2003,-5.626 -1,-6.5 -11.2988,-0.355 -22.6321,0.145 -34,1.5 -0.7135,1.343 -0.3802,2.676 1,4 -1.2932,0.49 -2.6266,0.657 -4,0.5 -2.174,-0.25 -3.8406,-1.25 -5,-3 0.7389,0.131 1.4056,-0.036 2,-0.5 -1.5009,-1.252 -3.1675,-2.252 -5,-3 -2.157,-3.1557 -4.657,-5.989 -7.5,-8.5 -2.121,-3.2474 -3.9543,-6.5807 -5.5,-10 0.9959,-0.0858 1.8292,0.2476 2.5,1 5.9789,-3.1506 11.9789,-6.1506 18,-9 1.1053,3.623 2.1053,7.2897 3,11 0.5,-0.5 1,-1 1.5,-1.5 6.1854,-0.6092 12.1854,-1.1092 18,-1.5 5.8663,0.2924 11.533,1.2924 17,3 1.6191,-3.1423 2.6191,-6.4756 3,-10 6.1551,1.995 11.9884,4.6616 17.5,8 1,-1.3333 2,-1.3333 3,0 1.129,-1.6412 2.629,-2.6412 4.5,-3 z"
             id="path691" /></g><g
           id="g697"
           style="clip-rule:evenodd;fill-rule:evenodd;stroke-linejoin:round;stroke-miterlimit:2;image-rendering:optimizeQuality;shape-rendering:geometricPrecision;text-rendering:geometricPrecision"
           transform="matrix(1.3614273,0,0,1.3163892,136.75439,206.23068)"><path
             style="opacity:1"
             fill="#292929"
             d="m 82.5,109.5 c -13.4418,5.47 -26.7752,5.137 -40,-1 1.3734,0.157 2.7068,-0.01 4,-0.5 -1.3802,-1.324 -1.7135,-2.657 -1,-4 11.3679,-1.355 22.7012,-1.855 34,-1.5 6.2003,0.874 6.5337,3.041 1,6.5 0.5944,0.464 1.2611,0.631 2,0.5 z"
             id="path695" /></g><g
           id="g701"
           style="clip-rule:evenodd;fill-rule:evenodd;stroke-linejoin:round;stroke-miterlimit:2;image-rendering:optimizeQuality;shape-rendering:geometricPrecision;text-rendering:geometricPrecision"
           transform="matrix(1.3614273,0,0,1.3163892,136.75439,206.23068)"><path
             style="opacity:1"
             fill="#676767"
             d="m 109.5,83.5 c -1.937,5.1229 -4.937,9.6229 -9,13.5 0.228,0.3988 0.562,0.5654 1,0.5 -3.1012,3.433 -6.7679,6.1 -11,8 -0.5431,-0.06 -0.8764,-0.393 -1,-1 3.0866,-1.628 5.92,-3.628 8.5,-6 3.725,-5.2069 7.558,-10.2069 11.5,-15 z"
             id="path699" /></g></g></g><text
       xml:space="preserve"
       id="text455-2"
       style="font-size:32px;text-align:center;white-space:pre;shape-inside:url(#rect457-3-2);clip-rule:evenodd;display:inline;fill:#ffffff;fill-rule:evenodd;stroke-linejoin:round;stroke-miterlimit:2;filter:url(#filter521-2-6)"
       transform="matrix(0.52304326,0,0,0.62209007,118.12403,83.489831)"><tspan
         x="123.80957"
         y="299.96215"
         id="tspan685">WileySoftware</tspan></text><path
       d="m 164.24039,195.4305 q 1.12934,0.87444 1.86591,1.9262 0.73183,1.03434 1.02625,2.11513 0.36568,1.34228 0.11138,2.58971 -0.26567,1.2386 -1.33105,2.61453 l -1.31841,1.7027 6.33109,4.90217 -1.3184,1.7027 -16.98557,-13.15194 2.69009,-3.4742 q 0.89224,-1.15234 1.77387,-1.74894 0.87022,-0.60543 1.89718,-0.80062 1.21622,-0.22746 2.49214,0.12769 1.28257,0.34662 2.76552,1.49487 z m -1.31465,1.81565 q -0.87837,-0.68012 -1.70837,-0.9514 -0.83,-0.27128 -1.60689,-0.11628 -0.67325,0.13893 -1.23438,0.55729 -0.56587,0.40092 -1.19178,1.20928 l -1.30509,1.6855 6.78738,5.25549 1.11199,-1.43614 q 0.79903,-1.03193 1.05887,-1.86239 0.24843,-0.83928 0.0253,-1.65859 -0.23458,-0.82816 -0.71268,-1.45968 -0.47141,-0.64012 -1.2243,-1.22308 z"
       style="font-size:32px;text-align:center;text-anchor:middle;white-space:pre;shape-inside:url(#rect189-4-6);clip-rule:evenodd;display:inline;fill:#ffffff;fill-rule:evenodd;stroke-width:0.801692;stroke-linejoin:round;stroke-miterlimit:2;filter:url(#filter265-3-4)"
       id="path398" /><path
       d="m 178.21845,189.26884 q 2.74631,2.82322 3.24432,5.51888 0.49802,2.69565 -1.33405,4.4778 -1.84765,1.79732 -4.52854,1.22508 -2.67309,-0.57983 -5.4194,-3.40304 -2.74632,-2.82323 -3.25212,-5.51131 -0.50809,-2.70598 1.33959,-4.50331 1.83205,-1.78215 4.52299,-1.19957 2.68088,0.57224 5.42721,3.39547 z m -1.51243,1.47122 q -2.18297,-2.24411 -3.9019,-2.68534 -1.729,-0.45159 -2.90619,0.69354 -1.19278,1.16029 -0.78911,2.90109 0.40141,1.72289 2.58439,3.96698 2.11255,2.17171 3.87172,2.65432 1.74912,0.47227 2.9341,-0.68044 1.1694,-1.13755 0.75566,-2.88869 -0.416,-1.76907 -2.54867,-3.96146 z"
       style="font-size:32px;text-align:center;text-anchor:middle;white-space:pre;shape-inside:url(#rect189-4-6);clip-rule:evenodd;display:inline;fill:#ffffff;fill-rule:evenodd;stroke-width:0.801692;stroke-linejoin:round;stroke-miterlimit:2;filter:url(#filter265-3-4)"
       id="path400" /><path
       d="m 187.74178,177.64893 q 2.87193,2.69532 3.4921,5.36553 0.62017,2.6702 -1.12891,4.53389 -1.76395,1.87952 -4.4681,1.42987 -2.6967,-0.45759 -5.56865,-3.15291 -2.87194,-2.69533 -3.49954,-5.35761 -0.63066,-2.68007 1.13328,-4.55961 1.74907,-1.86368 4.46372,-1.40415 2.70415,0.44966 5.5761,3.14499 z m -1.44391,1.53852 q -2.28283,-2.14244 -4.02006,-2.505 -1.74775,-0.37244 -2.87162,0.82507 -1.13875,1.21337 -0.65628,2.934 0.4794,1.70282 2.76222,3.84527 2.20919,2.07332 3.9885,2.47538 1.76879,0.39219 2.90009,-0.81325 1.11644,-1.18958 0.62345,-2.92008 -0.49607,-1.74832 -2.7263,-3.84139 z"
       style="font-size:32px;text-align:center;text-anchor:middle;white-space:pre;shape-inside:url(#rect189-4-6);clip-rule:evenodd;display:inline;fill:#ffffff;fill-rule:evenodd;stroke-width:0.801692;stroke-linejoin:round;stroke-miterlimit:2;filter:url(#filter265-3-4)"
       id="path402" /><path
       d="m 198.97909,178.34592 -1.5682,1.31208 -14.40546,-17.21713 1.56819,-1.3121 z"
       style="font-size:32px;text-align:center;text-anchor:middle;white-space:pre;shape-inside:url(#rect189-4-6);clip-rule:evenodd;display:inline;fill:#ffffff;fill-rule:evenodd;stroke-width:0.801692;stroke-linejoin:round;stroke-miterlimit:2;filter:url(#filter265-3-4)"
       id="path404" /><path
       d="m 213.82294,168.41868 -8.89592,5.08211 -10.65611,-18.65289 1.86985,-1.06821 9.39654,16.44811 7.02609,-4.01389 z"
       style="font-size:32px;text-align:center;text-anchor:middle;white-space:pre;shape-inside:url(#rect189-4-6);clip-rule:evenodd;display:inline;fill:#ffffff;fill-rule:evenodd;stroke-width:0.801692;stroke-linejoin:round;stroke-miterlimit:2;filter:url(#filter265-3-4)"
       id="path406" /><path
       d="m 222.82102,157.15435 -8.198,3.59353 q 0.59658,1.361 1.35137,2.24307 0.74899,0.86888 1.57069,1.28056 0.79601,0.4072 1.64226,0.41431 0.85621,0.003 1.71286,-0.37276 1.13556,-0.49777 2.02045,-1.59453 0.88905,-1.11431 1.1223,-1.90965 l 0.0996,-0.0437 1.18737,2.70877 q -0.71462,0.94336 -1.54439,1.73238 -0.82977,0.78904 -1.91552,1.26498 -2.76918,1.21385 -5.19193,-0.0871 -2.42853,-1.31409 -4.03293,-4.97423 -1.58702,-3.62051 -1.03534,-6.39848 0.56165,-2.78232 2.99216,-3.84773 2.25121,-0.98679 4.23102,0.22469 1.98976,1.20712 3.39723,4.418 z m -2.65694,-1.1037 q -0.86716,-1.95124 -2.07346,-2.69841 -1.19632,-0.75156 -2.69048,-0.0966 -1.50413,0.65933 -1.88513,2.2283 -0.37105,1.56461 0.27396,3.36119 z"
       style="font-size:32px;text-align:center;text-anchor:middle;white-space:pre;shape-inside:url(#rect189-4-6);clip-rule:evenodd;display:inline;fill:#ffffff;fill-rule:evenodd;stroke-width:0.801692;stroke-linejoin:round;stroke-miterlimit:2;filter:url(#filter265-3-4)"
       id="path408" /><path
       d="m 237.52218,162.6942 -1.9732,0.49285 -0.41604,-1.66568 q -0.20437,0.30385 -0.54972,0.85109 -0.3383,0.5306 -0.69744,0.88798 -0.41553,0.44581 -1.00675,0.81653 -0.58773,0.38473 -1.45299,0.60085 -1.59333,0.39797 -3.0509,-0.72502 -1.45756,-1.12298 -1.99945,-3.29255 -0.44401,-1.77765 -0.14691,-3.01175 0.30416,-1.25074 1.21258,-2.14681 0.91897,-0.8987 2.37195,-1.49954 1.453,-0.60084 3.15554,-1.14505 l -0.10139,-0.40592 q -0.22375,-0.89583 -0.61329,-1.42309 -0.37898,-0.5299 -0.90606,-0.75514 -0.50249,-0.21651 -1.12136,-0.1809 -0.61887,0.0356 -1.26254,0.19639 -0.78084,0.19503 -1.67115,0.71481 -0.89379,0.50578 -1.78797,1.27933 l -0.10552,0.0263 -0.66776,-2.67348 q 0.52792,-0.3549 1.56239,-0.88096 1.03446,-0.52604 2.10021,-0.79223 1.24512,-0.311 2.23306,-0.26035 0.99499,0.034 1.83463,0.52321 0.82559,0.47783 1.42902,1.41265 0.60343,0.93483 0.98101,2.44653 z m -2.93464,-3.35639 -1.08728,-4.35314 q -0.88999,0.29663 -2.0896,0.74498 -1.18906,0.4457 -1.84016,0.89087 -0.7743,0.53541 -1.13058,1.35306 -0.35978,0.80364 -0.0626,1.9934 0.33564,1.34373 1.11896,1.87674 0.77982,0.519 2.03549,0.20537 1.04464,-0.26092 1.77705,-1.00893 0.72891,-0.76201 1.27874,-1.70235 z"
       style="font-size:32px;text-align:center;text-anchor:middle;white-space:pre;shape-inside:url(#rect189-4-6);clip-rule:evenodd;display:inline;fill:#ffffff;fill-rule:evenodd;stroke-width:0.801692;stroke-linejoin:round;stroke-miterlimit:2;filter:url(#filter265-3-4)"
       id="path410" /><path
       d="m 249.52127,161.26221 q 0,4.09733 -1.40301,6.01616 -1.40302,1.91882 -4.31781,1.91882 -0.96796,0 -1.89243,-0.18755 -0.91359,-0.17313 -1.80543,-0.50496 v -2.77003 h 0.10876 q 0.5003,0.25969 1.58791,0.6348 1.0876,0.38954 2.17521,0.38954 1.0441,0 1.7293,-0.33183 0.68519,-0.33182 1.06585,-0.92334 0.38066,-0.56266 0.54381,-1.35616 0.16314,-0.7935 0.16314,-1.77455 v -1.47158 q -0.92447,0.98106 -1.7728,1.47158 -0.83746,0.4761 -2.14259,0.4761 -2.17521,0 -3.45859,-2.07752 -1.2725,-2.09195 -1.2725,-5.88631 0,-2.07753 0.43505,-3.57796 0.44591,-1.51485 1.20724,-2.61132 0.70694,-1.02434 1.71842,-1.587 1.01147,-0.57709 2.01207,-0.57709 1.05498,0 1.76193,0.28855 0.71782,0.27411 1.51177,0.8512 l 0.13051,-0.69251 h 1.91419 z m -2.0447,-2.5969 v -8.78618 q -0.81571,-0.49052 -1.52265,-0.69251 -0.69607,-0.21641 -1.39214,-0.21641 -1.68579,0 -2.65376,1.50043 -0.96797,1.50044 -0.96797,4.35703 0,2.71232 0.71782,4.11176 0.71782,1.39944 2.38186,1.39944 0.89184,0 1.78367,-0.44724 0.90272,-0.46167 1.65317,-1.22632 z"
       style="font-size:32px;text-align:center;text-anchor:middle;white-space:pre;shape-inside:url(#rect189-4-6);clip-rule:evenodd;display:inline;fill:#ffffff;fill-rule:evenodd;stroke-width:0.801692;stroke-linejoin:round;stroke-miterlimit:2;filter:url(#filter265-3-4)"
       id="path412" /><path
       d="m 262.23834,166.01132 -2.01604,-0.34115 0.29849,-1.7639 q -1.19928,0.89447 -2.22852,1.30559 -1.02924,0.41112 -2.15522,0.22058 -1.88735,-0.31938 -2.6807,-2.01929 -0.79093,-1.71414 -0.29024,-4.67294 l 1.74523,-10.31312 2.01604,0.34116 -1.53098,9.04709 q -0.20462,1.20913 -0.26567,2.09137 -0.0586,0.86801 0.11666,1.52687 0.18362,0.6749 0.59659,1.03743 0.41297,0.36254 1.29231,0.51134 0.78282,0.13247 1.79653,-0.25202 1.02443,-0.38267 1.97072,-1.08585 l 2.00761,-11.86363 2.01604,0.34116 z"
       style="font-size:32px;text-align:center;text-anchor:middle;white-space:pre;shape-inside:url(#rect189-4-6);clip-rule:evenodd;display:inline;fill:#ffffff;fill-rule:evenodd;stroke-width:0.801692;stroke-linejoin:round;stroke-miterlimit:2;filter:url(#filter265-3-4)"
       id="path414" /><path
       d="m 276.45697,161.07263 -8.65493,-2.28317 q -0.37904,1.43685 -0.33639,2.59701 0.0464,1.1462 0.43388,1.97955 0.3702,0.81386 1.02854,1.34563 0.66886,0.53454 1.57326,0.77313 1.19886,0.31625 2.57384,0.007 1.38917,-0.31989 2.06639,-0.79775 l 0.10516,0.0277 -0.7544,2.85976 q -1.14626,0.29445 -2.28672,0.39645 -1.14048,0.10201 -2.28676,-0.20038 -2.92353,-0.77123 -4.01207,-3.2965 -1.08487,-2.53923 -0.0655,-6.40339 1.00832,-3.82229 3.16774,-5.65489 2.16992,-1.82981 4.7359,-1.15291 2.37668,0.62698 3.17391,2.80682 0.80775,2.18264 -0.0865,5.57248 z m -1.39457,-2.51648 q 0.53414,-2.06736 0.054,-3.40261 -0.46961,-1.33246 -2.04706,-1.7486 -1.58796,-0.41891 -2.86195,0.57297 -1.26347,0.99464 -1.87543,2.80276 z"
       style="font-size:32px;text-align:center;text-anchor:middle;white-space:pre;shape-inside:url(#rect189-4-6);clip-rule:evenodd;display:inline;fill:#ffffff;fill-rule:evenodd;stroke-width:0.801692;stroke-linejoin:round;stroke-miterlimit:2;filter:url(#filter265-3-4)"
       id="path416" /><path
       d="m 292.13852,170.28877 q -0.43697,1.17665 -1.28193,2.17101 -0.83475,0.99815 -1.87537,1.5197 -1.13711,0.56267 -2.40887,0.64441 -1.26156,0.0855 -2.79091,-0.48242 -1.64151,-0.6096 -2.80608,-1.50379 -1.15436,-0.89039 -2.21405,-2.19193 l 1.24562,-3.35413 0.14274,0.053 q 0.67998,1.69919 1.93279,2.94932 1.2528,1.25015 2.57824,1.74238 1.87601,0.69669 3.26254,0.14969 1.39672,-0.5432 1.97433,-2.09855 0.49724,-1.33894 0.23372,-2.16014 -0.25333,-0.8174 -1.13212,-1.5439 -0.66422,-0.55446 -1.49615,-1.06349 -0.82173,-0.50524 -1.72045,-1.14679 -1.8078,-1.31774 -2.27929,-3.04724 -0.45628,-1.73923 0.3624,-3.94374 0.93924,-2.52913 3.14786,-3.54032 2.21365,-1.02472 4.6912,-0.10462 1.60072,0.59445 2.78568,1.49621 1.18496,0.90175 1.99372,1.87927 l -1.1753,3.16478 -0.14274,-0.053 q -0.505,-1.29562 -1.68613,-2.45759 -1.16592,-1.17171 -2.6443,-1.72074 -1.62112,-0.60202 -2.94159,-0.0767 -1.31029,0.52914 -1.83265,1.93572 -0.46711,1.2578 -0.24392,2.15635 0.2232,0.89856 1.31624,1.73541 0.58222,0.43167 1.68485,1.14895 1.10264,0.71729 1.83321,1.31178 1.47149,1.22364 1.88091,2.74539 0.40942,1.52175 -0.3942,3.68571 z"
       style="font-size:32px;text-align:center;text-anchor:middle;white-space:pre;shape-inside:url(#rect189-4-6);clip-rule:evenodd;display:inline;fill:#ffffff;fill-rule:evenodd;stroke-width:0.801692;stroke-linejoin:round;stroke-miterlimit:2;filter:url(#filter265-3-4)"
       id="path418" /><path
       d="m 295.8698,181.46717 q -0.59863,-0.12125 -1.25383,-0.36013 -0.64586,-0.2333 -1.10381,-0.50587 -1.59815,-0.95121 -1.75108,-2.58685 -0.15292,-1.63564 1.345,-4.15232 l 4.38308,-7.36409 -1.18693,-0.70645 1.16587,-1.95879 1.18693,0.70645 2.36864,-3.97958 1.75702,1.04578 -2.36863,3.97957 3.6262,2.15832 -1.16586,1.9588 -3.62621,-2.15832 -3.75587,6.3103 q -0.64935,1.09098 -0.98091,1.7331 -0.32418,0.62973 -0.41718,1.29632 -0.0895,0.61827 0.1254,1.0652 0.23168,0.4401 0.97,0.87955 0.42991,0.25588 0.99313,0.37285 0.5706,0.10457 0.84262,0.11537 l 0.0935,0.0557 z"
       style="font-size:32px;text-align:center;text-anchor:middle;white-space:pre;shape-inside:url(#rect189-4-6);clip-rule:evenodd;display:inline;fill:#ffffff;fill-rule:evenodd;stroke-width:0.801692;stroke-linejoin:round;stroke-miterlimit:2;filter:url(#filter265-3-4)"
       id="path420" /><path
       d="m 304.91033,189.64724 -1.62915,-1.21751 1.02776,-1.37523 q -0.36463,0.0337 -1.00697,0.11198 -0.62501,0.0732 -1.12894,0.0209 -0.60811,-0.0402 -1.26909,-0.26401 -0.66961,-0.21224 -1.384,-0.74613 -1.31552,-0.98312 -1.36662,-2.8224 -0.0511,-1.83929 1.28756,-3.63056 1.09684,-1.46769 2.24094,-2.01753 1.16145,-0.55487 2.43001,-0.41734 1.27727,0.14406 2.66128,0.89019 1.384,0.74613 2.88186,1.72144 l 0.25046,-0.33515 q 0.55274,-0.73962 0.71511,-1.37474 0.17106,-0.62861 0.0125,-1.17943 -0.14985,-0.52622 -0.56862,-0.98327 -0.41878,-0.45706 -0.95022,-0.85421 -0.64469,-0.4818 -1.61021,-0.84315 -0.95689,-0.37291 -2.12151,-0.57684 l -0.0871,-0.0651 1.64959,-2.20732 q 0.6087,0.18475 1.67021,0.65385 1.06151,0.4691 1.94143,1.12668 1.02801,0.76827 1.61323,1.56583 0.60256,0.79252 0.75421,1.75237 0.15157,0.94178 -0.1914,2.00026 -0.34297,1.05849 -1.27572,2.3066 z m 0.74591,-4.39558 2.68597,-3.59409 q -0.7924,-0.50216 -1.89808,-1.14834 -1.09696,-0.63967 -1.85347,-0.86282 -0.90432,-0.26158 -1.76311,-0.0209 -0.85016,0.22917 -1.58427,1.21148 -0.8291,1.10943 -0.747,2.05333 0.0907,0.93234 1.12747,1.70712 0.86249,0.64456 1.90506,0.73929 1.05122,0.0832 2.12743,-0.0851 z"
       style="font-size:32px;text-align:center;text-anchor:middle;white-space:pre;shape-inside:url(#rect189-4-6);clip-rule:evenodd;display:inline;fill:#ffffff;fill-rule:evenodd;stroke-width:0.801692;stroke-linejoin:round;stroke-miterlimit:2;filter:url(#filter265-3-4)"
       id="path422" /><path
       d="m 311.24387,197.62875 q -0.55387,-0.2575 -1.13532,-0.64255 -0.57366,-0.37746 -0.95544,-0.74929 -1.33231,-1.29762 -1.09967,-2.92384 0.23266,-1.62621 2.27608,-3.72428 l 5.97926,-6.13918 -0.9895,-0.96373 1.59044,-1.63298 0.9895,0.96373 3.23121,-3.31763 1.46478,1.42662 -3.23122,3.31763 3.02305,2.9443 -1.59044,1.63298 -3.02305,-2.9443 -5.12365,5.26068 q -0.88581,0.9095 -1.35795,1.45663 -0.46207,0.53677 -0.70792,1.16332 -0.23124,0.58035 -0.12641,1.06508 0.12266,0.48198 0.73818,1.08147 0.3584,0.34907 0.87882,0.59413 0.5305,0.23472 0.79251,0.30865 l 0.0779,0.0759 z"
       style="font-size:32px;text-align:center;text-anchor:middle;white-space:pre;shape-inside:url(#rect189-4-6);clip-rule:evenodd;display:inline;fill:#ffffff;fill-rule:evenodd;stroke-width:0.801692;stroke-linejoin:round;stroke-miterlimit:2;filter:url(#filter265-3-4)"
       id="path424"
       inkscape:transform-center-x="-1.0896057"
       inkscape:transform-center-y="-0.54480287" /><path
       d="m 322.89126,204.93455 q -1.55927,1.56239 -3.5357,1.58744 -1.96874,0.0327 -3.65466,-1.64982 -0.95458,-0.95266 -1.45965,-2.04782 -0.48718,-1.09768 -0.66935,-1.9929 l 2.15037,-2.15469 0.077,0.0768 q 0.002,1.36796 0.43378,2.61386 0.44164,1.23569 1.21147,2.00397 0.95458,0.95267 1.90112,1.082 0.94652,0.12932 1.82298,-0.74889 0.67263,-0.67399 0.7266,-1.31314 0.0539,-0.63914 -0.53284,-1.71397 -0.21621,-0.39922 -0.5943,-1.02115 -0.37039,-0.61424 -0.63572,-1.1644 -0.73418,-1.52763 -0.44712,-2.76985 0.30495,-1.24475 1.426,-2.36805 0.7032,-0.70462 1.54042,-1.11242 0.84493,-0.40012 1.78061,-0.44468 0.91009,-0.0498 1.84731,0.33528 0.9551,0.38248 1.77882,1.20454 0.76983,0.76829 1.30027,1.80722 0.54832,1.03642 0.7151,1.91626 l -2.04846,2.05257 -0.077,-0.0768 q -0.0141,-1.09439 -0.44016,-2.25334 -0.41584,-1.16918 -1.17797,-1.92977 -0.79292,-0.79133 -1.74715,-0.92834 -0.94404,-0.14722 -1.73897,0.6493 -0.7032,0.70462 -0.72887,1.3924 -0.0333,0.68008 0.46606,1.62694 0.27801,0.52204 0.6484,1.13628 0.37809,0.62193 0.6072,1.05441 0.70273,1.3128 0.50534,2.60374 -0.20759,1.30116 -1.45093,2.54701 z"
       style="font-size:32px;text-align:center;text-anchor:middle;white-space:pre;shape-inside:url(#rect189-4-6);clip-rule:evenodd;display:inline;fill:#ffffff;fill-rule:evenodd;stroke-width:0.801692;stroke-linejoin:round;stroke-miterlimit:2;filter:url(#filter265-3-4)"
       id="path426"
       inkscape:transform-center-x="-1.0896057"
       inkscape:transform-center-y="1.0896057" /></g></g><text
   xml:space="preserve"
   id="text397"
   style="font-size:32px;text-align:center;white-space:pre;shape-inside:url(#rect399);display:inline;fill:#ffffff"
   transform="translate(-139.27391,-136.45316)"><tspan
     x="103.51172"
     y="387.67504"
     id="tspan689"><tspan
       dx="0 31.640625 8.78125 8.78125 19.0625 18.9375 21.875 19.421875 11.25 12.609375 25.875 19.21875 13.65625 19.0625"
       style="fill:#008000"
       id="tspan687">WileySoftware.</tspan></tspan></text><g
   inkscape:groupmode="layer"
   id="layer2"
   inkscape:label="Layer 2"
   transform="translate(-139.27391,-136.45316)" /></svg>
